<svg width="28" height="28" viewBox="0 0 28 28" fill="none" xmlns="http://www.w3.org/2000/svg">
<g clip-path="url(#clip0)">
<path d="M18.2215 6.29123C16.6408 3.0636 13.3342 0.929688 9.6252 0.929688C4.31806 0.929688 0.000421436 5.22283 0.000421436 10.4998C0.000421436 11.9339 0.308305 13.3084 0.915978 14.59L0.0163351 19.0887C-0.0981778 19.6614 0.407013 20.1676 0.979797 20.0543L5.53401 19.1539C6.14721 19.4447 6.78157 19.6659 7.43337 19.8184C5.97232 12.8983 11.2176 6.40268 18.2215 6.29123Z" fill="#F2F2F2"/>
<path d="M27.084 21.5896C27.2412 21.2582 27.3778 20.9204 27.4947 20.5772H27.4647C29.5126 14.5662 25.2059 8.24865 18.848 7.94104C18.8479 7.94071 18.8478 7.94038 18.8477 7.94005C13.3771 7.68795 8.83203 12.0681 8.83203 17.4994C8.83203 22.7719 13.1173 27.0617 18.3881 27.0693C19.8177 27.0674 21.1881 26.7597 22.4659 26.1535C27.4537 27.1396 27.0647 27.0695 27.1793 27.0695C27.6976 27.0695 28.0849 26.5945 27.9836 26.0884L27.084 21.5896Z" fill="#F2F2F2"/>
</g>
<defs>
<clipPath id="clip0">
<rect width="28" height="28" fill="white"/>
</clipPath>
</defs>
</svg>
