<svg width="28" height="28" viewBox="0 0 28 28" fill="none" xmlns="http://www.w3.org/2000/svg">
<path d="M14 0C6.26831 0 0 6.26831 0 14C0 21.7317 6.26831 28 14 28C21.7317 28 28 21.7317 28 14C28 6.26831 21.7317 0 14 0ZM18.8856 21.0922C18.465 21.2823 18.0272 21.4436 17.5778 21.5646C15.8724 22.037 14.1671 22.0543 12.4675 21.5012C10.4165 20.8387 9.05679 19.4387 8.24444 17.4798C8.08889 17.0996 7.98519 16.7021 7.8642 16.3045H6.25679C5.98601 16.3045 5.77284 16.0856 5.77284 15.8206V14.7374C5.77284 14.4667 5.99177 14.2535 6.25679 14.2535H7.58765C7.58765 13.9539 7.58765 13.6716 7.58765 13.372H6.25679C5.98601 13.372 5.77284 13.1531 5.77284 12.8881V11.8049C5.77284 11.5342 5.99177 11.321 6.25679 11.321H7.95062L8.00823 11.1539C8.46337 9.70782 9.24691 8.46914 10.451 7.5358C11.4074 6.79259 12.5136 6.38354 13.7004 6.19342C15.3885 5.92263 17.0247 6.15309 18.6091 6.77531C18.7128 6.81564 18.8107 6.86173 18.9086 6.91934C19.2889 7.14403 19.3868 7.42634 19.2198 7.83539C19.0412 8.26173 18.8626 8.69383 18.6667 9.1144C18.4996 9.47737 18.2691 9.59259 17.8774 9.50617C17.3416 9.38519 16.8173 9.21811 16.2815 9.10864C15.1523 8.87819 14.0288 8.86667 12.9284 9.29877C11.9835 9.67325 11.4074 10.3934 11.0156 11.2922C11.0099 11.3037 11.0099 11.3152 11.0099 11.3267H14.2996C14.5704 11.3267 14.7835 11.5457 14.7835 11.8107V12.8938C14.7835 13.1646 14.5646 13.3778 14.2996 13.3778H10.5432C10.5374 13.6658 10.5432 13.9539 10.5432 14.2593H14.3053C14.5761 14.2593 14.7893 14.4782 14.7893 14.7432V15.8263C14.7893 16.0971 14.5704 16.3103 14.3053 16.3103H10.8716C11.2864 17.4971 11.9605 18.4132 13.228 18.8107C14.242 19.1276 15.2617 19.1103 16.2872 18.8971C16.8173 18.7877 17.3358 18.6263 17.8658 18.5054C18.2807 18.4132 18.5054 18.5226 18.6782 18.9029C18.8741 19.3292 19.0584 19.7613 19.2313 20.1992C19.3926 20.5909 19.2889 20.9078 18.8856 21.0922Z" fill="#F2F2F2"/>
</svg>
