<svg width="36" height="36" viewBox="0 0 36 36" fill="none" xmlns="http://www.w3.org/2000/svg">
<path d="M0 24.7738C0 25.1429 0.258638 25.4326 0.627721 25.4326H1.62994C2.30336 23.9471 3.83657 22.8231 5.61681 22.8231C7.39712 22.8231 8.92999 23.9471 9.60376 25.4326H22.6308V20.1025H0V24.7738Z" fill="#F2F2F2"/>
<path d="M5.61635 24.2319C3.98474 24.2319 2.66211 25.5546 2.66211 27.1862C2.66211 28.8178 3.98474 30.1404 5.61635 30.1404C7.24716 30.1386 8.56875 28.817 8.57058 27.1862C8.57058 25.5547 7.24795 24.2319 5.61635 24.2319Z" fill="#F2F2F2"/>
<path d="M35.6156 17.9315L32.802 16.6948H24.0293V25.4326H25.7321C26.406 23.9472 27.9387 22.8231 29.719 22.8231C31.4992 22.8231 33.0324 23.9472 33.7059 25.4326H35.3723C35.7414 25.4326 36 25.1429 36 24.7738V18.5671C36.0093 18.2977 35.8585 18.0483 35.6156 17.9315Z" fill="#F2F2F2"/>
<path d="M29.9094 11.657C29.5583 10.9837 28.8573 10.5663 28.098 10.5784H24.0293V15.2968H31.7985L29.9094 11.657Z" fill="#F2F2F2"/>
<path d="M20.6243 5.85986H1.99605C0.872465 5.85986 0 6.78484 0 7.90843V18.7044H22.6308V7.90843C22.6308 7.90528 22.6309 7.90214 22.6309 7.89899C22.6399 6.78187 21.7415 5.86886 20.6243 5.85986Z" fill="#F2F2F2"/>
<path d="M29.7178 24.2319C28.0862 24.232 26.7636 25.5547 26.7637 27.1863C26.7638 28.8179 28.0864 30.1405 29.718 30.1404C31.3488 30.1386 32.6703 28.817 32.6721 27.1862V27.1861C32.6721 25.5546 31.3494 24.2319 29.7178 24.2319Z" fill="#F2F2F2"/>
</svg>
