<svg width="38" height="38" viewBox="0 0 38 38" fill="none" xmlns="http://www.w3.org/2000/svg">
<g clip-path="url(#clip0)">
<path d="M19.0001 9.98389L5.4476 21.1565C5.4476 21.1723 5.44364 21.1955 5.43572 21.2271C5.42796 21.2585 5.42383 21.2813 5.42383 21.2974V32.6109C5.42383 33.0194 5.57317 33.3734 5.87177 33.6715C6.17029 33.9698 6.52379 34.1199 6.93236 34.1199H15.9829V25.0688H22.0174V34.1202H31.0679C31.4764 34.1202 31.8304 33.9704 32.1285 33.6715C32.4271 33.3737 32.5769 33.0195 32.5769 32.6109V21.2974C32.5769 21.2347 32.5683 21.1873 32.5531 21.1565L19.0001 9.98389Z" fill="#F2F2F2"/>
<path d="M37.7379 18.6109L32.5763 14.3212V4.70454C32.5763 4.48469 32.5057 4.30389 32.3638 4.16239C32.2232 4.02106 32.0424 3.95039 31.822 3.95039H27.2967C27.0766 3.95039 26.8959 4.02106 26.7543 4.16239C26.613 4.30389 26.5425 4.48477 26.5425 4.70454V9.30064L20.7915 4.4922C20.2892 4.08364 19.692 3.87939 19.0005 3.87939C18.3091 3.87939 17.712 4.08364 17.2093 4.4922L0.261911 18.6109C0.104809 18.7364 0.0187035 18.9053 0.00268779 19.1175C-0.0132454 19.3295 0.0416538 19.5146 0.167551 19.6717L1.62886 21.4159C1.75476 21.5572 1.91954 21.6437 2.12386 21.6753C2.3125 21.6911 2.50114 21.636 2.68978 21.5103L19 7.90999L35.3105 21.5102C35.4365 21.6199 35.6012 21.6746 35.8055 21.6746H35.8763C36.0803 21.6436 36.2448 21.5566 36.3713 21.4156L37.8328 19.6716C37.9584 19.5142 38.0135 19.3294 37.9972 19.1171C37.9811 18.9055 37.8946 18.7366 37.7379 18.6109Z" fill="#F2F2F2"/>
</g>
<defs>
<clipPath id="clip0">
<rect width="38" height="38" fill="white"/>
</clipPath>
</defs>
</svg>
