<svg width="36" height="36" viewBox="0 0 36 36" fill="none" xmlns="http://www.w3.org/2000/svg">
<g clip-path="url(#clip0)">
<path d="M32.2549 29.6869L30.6474 9.42925C30.5476 8.12404 29.4434 7.10205 28.1347 7.10205H24.9591V11.8072C24.9591 12.3898 24.4874 12.8615 23.9047 12.8615C23.3228 12.8615 22.8504 12.3898 22.8504 11.8072V7.10205H13.1507V11.8072C13.1507 12.3898 12.6784 12.8615 12.0964 12.8615C11.5137 12.8615 11.042 12.3898 11.042 11.8072V7.10205H7.86645C6.55772 7.10205 5.45347 8.12404 5.35369 9.42644L3.74551 29.6897C3.62112 31.3127 4.18411 32.9279 5.28971 34.1214C6.39537 35.3148 7.96278 36.0001 9.58995 36.0001H26.4112C28.0384 36.0001 29.6058 35.3148 30.7115 34.1213C31.8171 32.9278 32.3801 31.3126 32.2549 29.6869ZM22.7506 19.3707L17.2977 24.8237C17.0917 25.0296 16.8218 25.1329 16.5519 25.1329C16.282 25.1329 16.0122 25.0296 15.8062 24.8237L13.2506 22.268C12.8387 21.8561 12.8387 21.1891 13.2506 20.7772C13.6624 20.3653 14.3302 20.3653 14.7414 20.7772L16.552 22.5871L21.2599 17.8793C21.671 17.4681 22.3388 17.4681 22.7507 17.8793C23.1625 18.2912 23.1625 18.9588 22.7506 19.3707Z" fill="#F2F2F2"/>
<path d="M18.0005 0C14.1634 0 11.042 3.12216 11.042 6.95918V7.10184H13.1507V6.95918C13.1507 4.2847 15.3261 2.1086 18.0005 2.1086C20.675 2.1086 22.8504 4.2847 22.8504 6.95918V7.10184H24.959V6.95918C24.9589 3.12216 21.8375 0 18.0005 0Z" fill="#F2F2F2"/>
</g>
<defs>
<clipPath id="clip0">
<rect width="36" height="36" fill="white"/>
</clipPath>
</defs>
</svg>
