<svg width="32" height="32" viewBox="0 0 32 32" fill="none" xmlns="http://www.w3.org/2000/svg">
<g clip-path="url(#clip0)">
<path d="M24.5886 11.626H23.5938V15.6212H23.9228C25.026 15.6212 25.9204 16.5156 25.9204 17.6189V22.0569C25.9204 23.1601 25.026 24.0545 23.9228 24.0545H23.5938V28.0497H24.5886C27.5307 28.0497 29.9156 25.6647 29.9156 22.7227V16.953C29.9157 14.011 27.5307 11.626 24.5886 11.626Z" fill="#F2F2F2"/>
<path d="M19.5312 1.35525C18.7804 1.31088 18.0752 1.49337 17.4773 1.84056C16.9369 2.15438 16.2439 2.02538 15.842 1.54681C15.0476 0.601125 13.8563 0 12.5246 0C11.1929 0 10.0016 0.601125 9.20725 1.54688C8.80531 2.02537 8.11244 2.15438 7.57206 1.84056C6.97425 1.49344 6.26906 1.31088 5.51825 1.35525C3.66494 1.46475 2.173 2.97794 2.08794 4.83256C2.03644 5.95525 2.49181 6.9725 3.24425 7.67588H7.32575V12.9539C7.32575 14.0572 8.22012 14.9516 9.32337 14.9516C10.4266 14.9516 11.321 14.0572 11.321 12.9539V7.67588H21.8049C22.5574 6.9725 23.0127 5.95537 22.9613 4.83275C22.8764 2.97819 21.3846 1.46494 19.5312 1.35525Z" fill="#F2F2F2"/>
<path d="M13.1956 12.9543C13.1956 15.0896 11.4584 16.8269 9.32302 16.8269C7.18764 16.8269 5.45039 15.0896 5.45039 12.9543V9.55127H3.33008V30.0027C3.33008 31.106 4.22445 32.0003 5.3277 32.0003H19.7207C20.824 32.0003 21.7183 31.106 21.7183 30.0027V9.55127H13.1956V12.9543Z" fill="#F2F2F2"/>
</g>
<defs>
<clipPath id="clip0">
<rect width="32" height="32" fill="white"/>
</clipPath>
</defs>
</svg>
