<svg width="23" height="23" viewBox="0 0 23 23" fill="none" xmlns="http://www.w3.org/2000/svg">
<path d="M11.3201 1.65183C11.4622 1.17588 12.1362 1.17588 12.2783 1.65183L14.1065 7.7751C14.3 8.42333 14.9035 8.8618 15.5798 8.84555L21.9683 8.69202C22.4649 8.68008 22.6732 9.32111 22.2644 9.60333L17.0058 13.2342C16.4491 13.6186 16.2186 14.328 16.443 14.9662L18.5632 20.9946C18.728 21.4632 18.1827 21.8593 17.788 21.5578L12.7098 17.6785C12.1722 17.2679 11.4262 17.2679 10.8887 17.6785L5.81049 21.5578C5.41577 21.8593 4.87048 21.4632 5.03528 20.9946L7.15545 14.9662C7.37991 14.328 7.14939 13.6186 6.59269 13.2342L1.33403 9.60332C0.925291 9.32111 1.13357 8.68008 1.63014 8.69202L8.01864 8.84555C8.69496 8.8618 9.29845 8.42333 9.49199 7.7751L11.3201 1.65183Z" stroke="#6697CD"/>
</svg>
