<svg width="23" height="23" viewBox="0 0 23 23" fill="none" xmlns="http://www.w3.org/2000/svg">
<path d="M10.5418 1.20947C10.826 0.257571 12.174 0.257574 12.4582 1.20947L14.3497 7.54495C14.4787 7.9771 14.8811 8.26941 15.3319 8.25858L21.9418 8.09973C22.935 8.07586 23.3515 9.35791 22.534 9.92234L17.0931 13.679C16.722 13.9353 16.5683 14.4083 16.718 14.8337L18.9116 21.071C19.2412 22.0082 18.1506 22.8005 17.3612 22.1975L12.1071 18.1837C11.7487 17.91 11.2513 17.91 10.8929 18.1837L5.6388 22.1975C4.84937 22.8005 3.7588 22.0082 4.08839 21.071L6.28204 14.8337C6.43167 14.4083 6.27799 13.9353 5.90686 13.679L0.465963 9.92234C-0.351523 9.3579 0.0650425 8.07586 1.05817 8.09973L7.66807 8.25858C8.11895 8.26941 8.52128 7.9771 8.6503 7.54494L10.5418 1.20947Z" fill="#6697CD"/>
</svg>
