<svg width="29" height="29" viewBox="0 0 29 29" fill="none" xmlns="http://www.w3.org/2000/svg">
<path d="M14.3201 3.65183C14.4622 3.17588 15.1362 3.17588 15.2783 3.65183L17.1065 9.7751C17.3 10.4233 17.9035 10.8618 18.5798 10.8455L24.9683 10.692C25.4649 10.6801 25.6732 11.3211 25.2644 11.6033L20.0058 15.2342C19.4491 15.6186 19.2186 16.328 19.443 16.9662L21.5632 22.9946C21.728 23.4632 21.1827 23.8593 20.788 23.5578L15.7098 19.6785C15.1722 19.2679 14.4262 19.2679 13.8887 19.6785L8.81049 23.5578C8.41577 23.8593 7.87048 23.4632 8.03528 22.9946L10.1555 16.9662C10.3799 16.328 10.1494 15.6186 9.59269 15.2342L4.33403 11.6033C3.92529 11.3211 4.13357 10.6801 4.63014 10.692L11.0186 10.8455C11.695 10.8618 12.2985 10.4233 12.492 9.7751L14.3201 3.65183Z" stroke="#6697CD"/>
<path fill-rule="evenodd" clip-rule="evenodd" d="M15.6421 3.12145C15.3922 2.28443 14.2068 2.28443 13.957 3.12145L12.0132 9.63206C11.8841 10.0642 11.4818 10.3565 11.0309 10.3457L4.64243 10.1922C3.64931 10.1683 3.23274 11.4503 4.05023 12.0148L9.30888 15.6456C9.68002 15.9019 9.8337 16.3749 9.68406 16.8003L7.56389 22.8287C7.2343 23.7659 8.32487 24.5582 9.1143 23.9551L14.7995 19.6121V3.00414C14.7995 2.73881 14.9588 2.46675 15.1834 2.60798C15.3132 2.68959 15.4683 2.84601 15.6421 3.12145Z" fill="#6697CD"/>
</svg>
