<svg width="28" height="28" viewBox="0 0 28 28" fill="none" xmlns="http://www.w3.org/2000/svg">
<path d="M26.8239 26.3518L23.8512 9.76669C23.7315 9.099 23.1506 8.61297 22.4722 8.61297H17.5283C18.4552 7.69993 19.0313 6.43152 19.0313 5.03068C19.0313 2.25673 16.7745 0 14.0006 0C11.2266 0 8.96983 2.25673 8.96983 5.03068C8.96983 6.43152 9.54589 7.69993 10.4728 8.61297H5.52893C4.8505 8.61297 4.26968 9.099 4.14994 9.76669L1.17724 26.3518C1.10411 26.7602 1.21554 27.1799 1.48181 27.498C1.74799 27.8161 2.14146 27.9999 2.55623 27.9999H25.4449C25.8596 27.9999 26.2531 27.8161 26.5193 27.498C26.7855 27.1799 26.897 26.7602 26.8239 26.3518ZM14.0006 2.80188C15.2296 2.80188 16.2294 3.80168 16.2294 5.03068C16.2294 6.25967 15.2296 7.25957 14.0006 7.25957C12.7716 7.25957 11.7717 6.25967 11.7717 5.03068C11.7717 3.80168 12.7716 2.80188 14.0006 2.80188ZM13.6345 21.6796C13.5615 21.8141 13.4207 21.8979 13.2677 21.8979H12.6068C12.4587 21.8979 12.3216 21.8193 12.2467 21.6915L10.6112 18.8994L9.56522 19.9671V21.2529C9.56522 21.6091 9.27644 21.8979 8.92023 21.8979C8.56402 21.8979 8.27524 21.6091 8.27524 21.2529V16.1538C8.27524 15.7975 8.56402 15.5088 8.92023 15.5088C9.27644 15.5088 9.56522 15.7975 9.56522 16.1538V18.3459L12.0476 15.6437C12.1266 15.5577 12.2381 15.5088 12.3549 15.5088H12.9221C13.0896 15.5088 13.2408 15.6089 13.3063 15.7631C13.3717 15.9173 13.3385 16.0957 13.2221 16.2161L11.5003 17.9971L13.6176 21.253C13.701 21.3814 13.7075 21.545 13.6345 21.6796ZM19.9894 20.8288C19.9894 20.9556 19.9315 21.0761 19.8324 21.1552C19.575 21.3606 19.2359 21.5449 18.8151 21.7082C18.3021 21.9072 17.7828 22.0067 17.2569 22.0067C16.5886 22.0067 16.0063 21.8666 15.5092 21.5861C15.0125 21.3058 14.639 20.9049 14.3892 20.3833C14.1393 19.8618 14.0144 19.2946 14.0144 18.6814C14.0144 18.0162 14.1539 17.4248 14.4328 16.9077C14.7117 16.3905 15.1199 15.9941 15.6575 15.7179C16.067 15.5059 16.577 15.3997 17.1872 15.3997C17.9804 15.3997 18.5999 15.5661 19.0459 15.8988C19.2392 16.0429 19.4025 16.2109 19.536 16.4028C19.6636 16.5861 19.6894 16.8215 19.6048 17.0281C19.5202 17.2348 19.3367 17.3847 19.1171 17.4258L19.1156 17.4261C18.8584 17.4742 18.5976 17.3602 18.4584 17.1387C18.3693 16.9969 18.2556 16.8756 18.1177 16.7747C17.8691 16.5931 17.559 16.5023 17.1872 16.5023C16.6234 16.5023 16.1752 16.6811 15.8427 17.0383C15.5101 17.3958 15.3437 17.926 15.3437 18.6291C15.3437 19.3875 15.5121 19.9562 15.8493 20.3354C16.1862 20.7145 16.6278 20.9041 17.1742 20.9041C17.4443 20.9041 17.7152 20.8511 17.9869 20.745C18.2584 20.6389 18.4916 20.5103 18.6864 20.3594V19.5486H17.7473C17.45 19.5486 17.2091 19.3076 17.2091 19.0105C17.2091 18.7132 17.4501 18.4723 17.7473 18.4723H19.5721C19.8026 18.4723 19.9894 18.6592 19.9894 18.8896V20.8288Z" fill="#F2F2F2"/>
</svg>
