<svg width="28" height="28" viewBox="0 0 28 28" fill="none" xmlns="http://www.w3.org/2000/svg">
<g clip-path="url(#clip0)">
<path d="M26.2103 13.4553C26.1224 13.4369 26.0394 13.4195 25.9656 13.4003C25.1289 13.1827 24.747 13.0635 24.4647 12.5183L23.3951 10.353C23.0514 9.68945 22.1639 9.14958 21.4167 9.14958H19.5126V6.64919C19.5126 6.20024 19.1473 5.83496 18.6982 5.83496L5.43622 5.84828C4.99926 5.84828 4.66975 6.19552 4.66975 6.65603V7.39508H1.27238C0.57081 7.39514 0 7.96589 0 8.66752C0 9.36915 0.57081 9.9399 1.27238 9.9399H4.66969V11.1594H2.44536C1.74379 11.1594 1.17298 11.7302 1.17298 12.4318C1.17298 13.1334 1.74379 13.7042 2.44536 13.7042H4.66969V14.9237H3.61834C2.91677 14.9237 2.34596 15.4945 2.34596 16.1961C2.34596 16.8977 2.91677 17.4685 3.61834 17.4685H4.66969V18.744C4.66969 19.193 5.03498 19.5582 5.48392 19.5582H6.86346C7.07831 21.0307 8.34917 22.1652 9.88047 22.1652C11.4119 22.1652 12.6828 21.0307 12.8977 19.5582H18.4808C18.5098 19.5582 18.5395 19.5563 18.5691 19.5544C18.7824 21.0287 20.054 22.1652 21.5866 22.1652C23.1181 22.1652 24.389 21.0307 24.6039 19.5582H26.5854C27.3654 19.5582 28.0001 18.9237 28.0001 18.1437V15.7435C28 13.8308 26.9229 13.6048 26.2103 13.4553ZM21.5866 18.0076C22.1981 18.0076 22.6955 18.5049 22.6955 19.1161C22.6955 19.7274 22.1981 20.2246 21.5866 20.2246C20.9755 20.2246 20.4782 19.7274 20.4782 19.1161C20.4782 18.5049 20.9755 18.0076 21.5866 18.0076ZM19.5126 13.2829V10.3305H20.9676C21.5269 10.3305 22.2168 10.7501 22.4729 11.2442L23.4246 13.1711C23.4447 13.2101 23.4657 13.2473 23.4874 13.2828H19.5126V13.2829ZM10.9893 19.1161C10.9893 19.7273 10.4919 20.2246 9.88047 20.2246C9.26929 20.2246 8.77209 19.7273 8.77209 19.1161C8.77209 18.5048 9.26929 18.0076 9.88047 18.0076C10.4919 18.0076 10.9893 18.5049 10.9893 19.1161Z" fill="#F2F2F2"/>
</g>
<defs>
<clipPath id="clip0">
<rect width="28" height="28" fill="white"/>
</clipPath>
</defs>
</svg>
