<svg width="31" height="31" viewBox="0 0 31 31" fill="none" xmlns="http://www.w3.org/2000/svg">
<path d="M10.6562 11.625C11.1913 11.625 11.625 11.1913 11.625 10.6562C11.625 10.1212 11.1913 9.6875 10.6562 9.6875C10.1212 9.6875 9.6875 10.1212 9.6875 10.6562C9.6875 11.1913 10.1212 11.625 10.6562 11.625Z" fill="#F2F2F2"/>
<path d="M4.84375 14.5312H6.78125V16.4688H4.84375V14.5312Z" fill="#F2F2F2"/>
<path d="M4.84375 19.375H6.78125V21.3125H4.84375V19.375Z" fill="#F2F2F2"/>
<path d="M23.419 11.1117C23.343 11.1388 23.2615 11.1471 23.1816 11.1359L20.5176 10.7533L21.1424 13.0783H25.3759L26.3591 10.0073L23.419 11.1117Z" fill="#F2F2F2"/>
<path d="M10.6562 16.4688C11.1913 16.4688 11.625 16.035 11.625 15.5C11.625 14.965 11.1913 14.5312 10.6562 14.5312C10.1212 14.5312 9.6875 14.965 9.6875 15.5C9.6875 16.035 10.1212 16.4688 10.6562 16.4688Z" fill="#F2F2F2"/>
<path d="M10.6562 21.3125C11.1913 21.3125 11.625 20.8788 11.625 20.3438C11.625 19.8087 11.1913 19.375 10.6562 19.375C10.1212 19.375 9.6875 19.8087 9.6875 20.3438C9.6875 20.8788 10.1212 21.3125 10.6562 21.3125Z" fill="#F2F2F2"/>
<path d="M24.2188 3.39062H22.2812V3.875C22.2812 4.38886 22.0771 4.88167 21.7138 5.24502C21.3504 5.60837 20.8576 5.8125 20.3438 5.8125C19.8299 5.8125 19.3371 5.60837 18.9737 5.24502C18.6104 4.88167 18.4062 4.38886 18.4062 3.875V3.39062H7.75V3.875C7.75 4.38886 7.54587 4.88167 7.18252 5.24502C6.81917 5.60837 6.32636 5.8125 5.8125 5.8125C5.29864 5.8125 4.80583 5.60837 4.44248 5.24502C4.07913 4.88167 3.875 4.38886 3.875 3.875V3.39062H1.9375V6.78125H24.2188V3.39062Z" fill="#F2F2F2"/>
<path d="M20.3438 4.84375C20.6004 4.84298 20.8464 4.74067 21.0279 4.55916C21.2094 4.37765 21.3117 4.13169 21.3125 3.875V1.9375H19.375V3.875C19.3758 4.13169 19.4781 4.37765 19.6596 4.55916C19.8411 4.74067 20.0871 4.84298 20.3438 4.84375Z" fill="#F2F2F2"/>
<path d="M20.8281 14.0469C20.6997 14.0469 20.5765 14.0979 20.4856 14.1887C20.3948 14.2796 20.3438 14.4028 20.3438 14.5312C20.3438 14.6597 20.3948 14.7829 20.4856 14.8738C20.5765 14.9646 20.6997 15.0156 20.8281 15.0156H25.6719C25.8003 15.0156 25.9235 14.9646 26.0144 14.8738C26.1052 14.7829 26.1562 14.6597 26.1562 14.5312C26.1562 14.4028 26.1052 14.2796 26.0144 14.1887C25.9235 14.0979 25.8003 14.0469 25.6719 14.0469H20.8281Z" fill="#F2F2F2"/>
<path d="M5.8125 4.84375C6.06919 4.84298 6.31515 4.74067 6.49666 4.55916C6.67817 4.37765 6.78048 4.13169 6.78125 3.875V1.9375H4.84375V3.875C4.84452 4.13169 4.94683 4.37765 5.12834 4.55916C5.30985 4.74067 5.55581 4.84298 5.8125 4.84375Z" fill="#F2F2F2"/>
<path d="M4.84375 9.6875H6.78125V11.625H4.84375V9.6875Z" fill="#F2F2F2"/>
<path d="M19.375 14.5312C19.3757 14.2623 19.4512 13.9988 19.5933 13.7704C19.7353 13.5419 19.9381 13.3576 20.1791 13.238L19.3895 10.2978C19.3702 10.2204 19.3698 10.1395 19.3884 10.062C19.4069 9.98443 19.4439 9.91247 19.4961 9.85219C19.5488 9.79157 19.6159 9.74516 19.6912 9.71723C19.7666 9.6893 19.8477 9.68074 19.9272 9.69234L23.1967 10.1573L24.2188 9.77469V7.75H1.9375V23.25H16.4688C16.4688 20.7361 17.9655 17.5102 19.9127 15.6502C19.7454 15.5155 19.6103 15.3451 19.5173 15.1515C19.4242 14.9579 19.3756 14.746 19.375 14.5312ZM7.75 21.7969C7.75 21.9253 7.69897 22.0485 7.60813 22.1394C7.51729 22.2302 7.39409 22.2812 7.26562 22.2812H4.35938C4.23091 22.2812 4.10771 22.2302 4.01687 22.1394C3.92603 22.0485 3.875 21.9253 3.875 21.7969V18.8906C3.875 18.7622 3.92603 18.639 4.01687 18.5481C4.10771 18.4573 4.23091 18.4062 4.35938 18.4062H7.26562C7.39409 18.4062 7.51729 18.4573 7.60813 18.5481C7.69897 18.639 7.75 18.7622 7.75 18.8906V21.7969ZM7.75 16.9531C7.75 17.0816 7.69897 17.2048 7.60813 17.2956C7.51729 17.3865 7.39409 17.4375 7.26562 17.4375H4.35938C4.23091 17.4375 4.10771 17.3865 4.01687 17.2956C3.92603 17.2048 3.875 17.0816 3.875 16.9531V14.0469C3.875 13.9184 3.92603 13.7952 4.01687 13.7044C4.10771 13.6135 4.23091 13.5625 4.35938 13.5625H7.26562C7.39409 13.5625 7.51729 13.6135 7.60813 13.7044C7.69897 13.7952 7.75 13.9184 7.75 14.0469V16.9531ZM7.75 12.1094C7.75 12.2378 7.69897 12.361 7.60813 12.4519C7.51729 12.5427 7.39409 12.5938 7.26562 12.5938H4.35938C4.23091 12.5938 4.10771 12.5427 4.01687 12.4519C3.92603 12.361 3.875 12.2378 3.875 12.1094V9.20312C3.875 9.07466 3.92603 8.95146 4.01687 8.86062C4.10771 8.76978 4.23091 8.71875 4.35938 8.71875H7.26562C7.39409 8.71875 7.51729 8.76978 7.60813 8.86062C7.69897 8.95146 7.75 9.07466 7.75 9.20312V12.1094ZM10.6562 22.2812C10.273 22.2812 9.89845 22.1676 9.57983 21.9547C9.26121 21.7418 9.01288 21.4392 8.86623 21.0852C8.71959 20.7312 8.68122 20.3416 8.75598 19.9658C8.83074 19.5899 9.01527 19.2447 9.28623 18.9737C9.5572 18.7028 9.90242 18.5182 10.2783 18.4435C10.6541 18.3687 11.0437 18.4071 11.3977 18.5537C11.7517 18.7004 12.0543 18.9487 12.2672 19.2673C12.4801 19.586 12.5938 19.9605 12.5938 20.3438C12.5938 20.8576 12.3896 21.3504 12.0263 21.7138C11.6629 22.0771 11.1701 22.2812 10.6562 22.2812ZM10.6562 17.4375C10.273 17.4375 9.89845 17.3239 9.57983 17.111C9.26121 16.8981 9.01288 16.5955 8.86623 16.2414C8.71959 15.8874 8.68122 15.4979 8.75598 15.122C8.83074 14.7462 9.01527 14.4009 9.28623 14.13C9.5572 13.859 9.90242 13.6745 10.2783 13.5997C10.6541 13.525 11.0437 13.5633 11.3977 13.71C11.7517 13.8566 12.0543 14.105 12.2672 14.4236C12.4801 14.7422 12.5938 15.1168 12.5938 15.5C12.5938 16.0139 12.3896 16.5067 12.0263 16.87C11.6629 17.2334 11.1701 17.4375 10.6562 17.4375ZM10.6562 12.5938C10.273 12.5938 9.89845 12.4801 9.57983 12.2672C9.26121 12.0543 9.01288 11.7517 8.86623 11.3977C8.71959 11.0437 8.68122 10.6541 8.75598 10.2783C8.83074 9.90242 9.01527 9.5572 9.28623 9.28623C9.5572 9.01527 9.90242 8.83074 10.2783 8.75598C10.6541 8.68122 11.0437 8.71959 11.3977 8.86623C11.7517 9.01288 12.0543 9.26121 12.2672 9.57983C12.4801 9.89845 12.5938 10.273 12.5938 10.6562C12.5938 11.1701 12.3896 11.6629 12.0263 12.0263C11.6629 12.3896 11.1701 12.5938 10.6562 12.5938ZM15.515 17.4225C15.1318 17.4225 14.7572 17.3089 14.4386 17.096C14.12 16.8831 13.8716 16.5805 13.725 16.2264C13.5784 15.8724 13.54 15.4828 13.6147 15.107C13.6895 14.7312 13.874 14.3859 14.145 14.115C14.416 13.844 14.7612 13.6595 15.137 13.5847C15.5129 13.51 15.9024 13.5483 16.2565 13.695C16.6105 13.8416 16.9131 14.0899 17.126 14.4086C17.3389 14.7272 17.4525 15.1018 17.4525 15.485C17.4525 15.9988 17.2484 16.4917 16.885 16.855C16.5217 17.2184 16.0289 17.4225 15.515 17.4225ZM15.515 12.5787C15.1318 12.5787 14.7572 12.4651 14.4386 12.2522C14.12 12.0393 13.8716 11.7367 13.725 11.3827C13.5784 11.0287 13.54 10.6391 13.6147 10.2632C13.6895 9.88741 13.874 9.54218 14.145 9.27122C14.416 9.00025 14.7612 8.81572 15.137 8.74096C15.5129 8.6662 15.9024 8.70457 16.2565 8.85122C16.6105 8.99786 16.9131 9.2462 17.126 9.56482C17.3389 9.88344 17.4525 10.258 17.4525 10.6412C17.4525 11.1551 17.2484 11.6479 16.885 12.0113C16.5217 12.3746 16.0289 12.5787 15.515 12.5787Z" fill="#F2F2F2"/>
<path d="M25.4975 15.9844H21.0025C19.0602 17.5489 17.4375 20.8281 17.4375 23.25V25.1875C17.4375 27.2509 19.0214 29.0625 20.8281 29.0625H25.6719C27.4786 29.0625 29.0625 27.2509 29.0625 25.1875V23.25C29.0625 20.8281 27.4398 17.5489 25.4975 15.9844ZM23.7344 26.6406V27.6094H22.7656V26.6406H20.8281V25.6719H23.7344C24.1198 25.6719 24.4894 25.5188 24.7619 25.2463C25.0344 24.9738 25.1875 24.6041 25.1875 24.2188C25.1875 23.8334 25.0344 23.4637 24.7619 23.1912C24.4894 22.9187 24.1198 22.7656 23.7344 22.7656H22.7656C22.1233 22.7656 21.5073 22.5105 21.0531 22.0563C20.5989 21.6021 20.3438 20.9861 20.3438 20.3438C20.3438 19.7014 20.5989 19.0854 21.0531 18.6312C21.5073 18.177 22.1233 17.9219 22.7656 17.9219V16.9531H23.7344V17.9219H25.6719V18.8906H22.7656C22.3802 18.8906 22.0106 19.0437 21.7381 19.3162C21.4656 19.5887 21.3125 19.9584 21.3125 20.3438C21.3125 20.7291 21.4656 21.0988 21.7381 21.3713C22.0106 21.6438 22.3802 21.7969 22.7656 21.7969H23.7344C24.3767 21.7969 24.9927 22.052 25.4469 22.5062C25.9011 22.9604 26.1562 23.5764 26.1562 24.2188C26.1562 24.8611 25.9011 25.4771 25.4469 25.9313C24.9927 26.3855 24.3767 26.6406 23.7344 26.6406Z" fill="#F2F2F2"/>
<path d="M15.5156 11.6099C16.0506 11.6099 16.4844 11.1761 16.4844 10.6411C16.4844 10.1061 16.0506 9.67236 15.5156 9.67236C14.9806 9.67236 14.5469 10.1061 14.5469 10.6411C14.5469 11.1761 14.9806 11.6099 15.5156 11.6099Z" fill="#F2F2F2"/>
<path d="M15.5156 16.4536C16.0506 16.4536 16.4844 16.0199 16.4844 15.4849C16.4844 14.9498 16.0506 14.5161 15.5156 14.5161C14.9806 14.5161 14.5469 14.9498 14.5469 15.4849C14.5469 16.0199 14.9806 16.4536 15.5156 16.4536Z" fill="#F2F2F2"/>
</svg>
