<svg width="16" height="20" viewBox="0 0 16 20" fill="none" xmlns="http://www.w3.org/2000/svg">
<path d="M6.552 14.064C6.40267 14.064 6.272 14.0173 6.16 13.924C6.048 13.812 5.992 13.6813 5.992 13.532V12.888C6.12267 12.104 6.412 11.404 6.86 10.788C7.32667 10.172 7.96133 9.472 8.764 8.688C9.36133 8.09067 9.80933 7.60533 10.108 7.232C10.4067 6.84 10.5653 6.448 10.584 6.056C10.64 5.47733 10.444 5.02 9.996 4.684C9.56667 4.32933 9.044 4.152 8.428 4.152C6.972 4.152 6.076 4.852 5.74 6.252C5.59067 6.7 5.30133 6.924 4.872 6.924H1.456C1.25067 6.924 1.08267 6.85867 0.952 6.728C0.84 6.57867 0.784 6.392 0.784 6.168C0.821333 5.14133 1.148 4.17067 1.764 3.256C2.38 2.32267 3.28533 1.56667 4.48 0.987999C5.67467 0.409332 7.10267 0.119999 8.764 0.119999C10.4627 0.119999 11.844 0.390665 12.908 0.931998C13.972 1.45467 14.728 2.108 15.176 2.892C15.6427 3.65733 15.876 4.44133 15.876 5.244C15.876 6.15867 15.6613 6.96133 15.232 7.652C14.8213 8.34267 14.2053 9.136 13.384 10.032C12.88 10.5733 12.4787 11.0307 12.18 11.404C11.9 11.7773 11.6853 12.1693 11.536 12.58C11.48 12.748 11.4147 13 11.34 13.336C11.1907 13.5973 11.06 13.784 10.948 13.896C10.836 14.008 10.6773 14.064 10.472 14.064H6.552ZM6.608 20C6.40267 20 6.23467 19.9347 6.104 19.804C5.97333 19.6733 5.908 19.5053 5.908 19.3V16.108C5.908 15.9027 5.97333 15.7347 6.104 15.604C6.23467 15.4733 6.40267 15.408 6.608 15.408H10.192C10.3973 15.408 10.5653 15.4733 10.696 15.604C10.8453 15.7347 10.92 15.9027 10.92 16.108V19.3C10.92 19.5053 10.8453 19.6733 10.696 19.804C10.5653 19.9347 10.3973 20 10.192 20H6.608Z" fill="#F2F2F2"/>
</svg>
