<svg width="27" height="27" viewBox="0 0 27 27" fill="none" xmlns="http://www.w3.org/2000/svg">
<g clip-path="url(#clip0)">
<path d="M8.5981 3.52174H18.5177V0.645652C18.5177 0.293478 18.2242 0 17.872 0H7.89375C7.65897 0 7.42418 0.117391 7.30679 0.352174C7.1894 0.586957 7.1894 0.93913 7.30679 1.17391L8.5981 3.52174Z" fill="#F2F2F2"/>
<path d="M7.89365 8.2175H9.00886C9.06756 10.8001 11.1806 12.8545 13.7632 12.8545C16.3458 12.8545 18.4588 10.8001 18.5175 8.2175V5.28271H8.59799L7.36539 7.39576C7.248 7.57185 7.248 7.68924 7.36539 7.92402C7.48273 8.10011 7.65886 8.2175 7.89365 8.2175Z" fill="#F2F2F2"/>
<path d="M18.7521 14.7324L9.6543 26.9998H21.3347C21.6869 26.9998 21.9803 26.7063 21.9803 26.3542V18.7237C22.0391 16.7868 20.6304 15.1433 18.7521 14.7324Z" fill="#F2F2F2"/>
<path d="M9.06757 14.674C6.83714 14.674 5.01758 16.4935 5.01758 18.724V26.2957C5.01758 26.6478 5.31106 26.9413 5.66323 26.9413H6.77845L15.935 14.6152H9.06757V14.674Z" fill="#F2F2F2"/>
</g>
<defs>
<clipPath id="clip0">
<rect width="27" height="27" fill="white"/>
</clipPath>
</defs>
</svg>
