<svg width="30" height="30" viewBox="0 0 30 30" fill="none" xmlns="http://www.w3.org/2000/svg">
<g clip-path="url(#clip0)">
<path d="M26.1966 27.2912C28.098 27.2912 29.6394 25.7499 29.6394 23.8485C29.6394 21.9471 28.098 20.4058 26.1966 20.4058C24.2953 20.4058 22.7539 21.9471 22.7539 23.8485C22.7539 25.7499 24.2953 27.2912 26.1966 27.2912Z" fill="#744EAA"/>
<path d="M26.5865 27.2017C24.7346 26.7706 23.5829 24.92 24.0139 23.0682C24.337 21.6803 25.4573 20.6858 26.778 20.4559C24.9943 20.1485 23.2589 21.2827 22.8433 23.0682C22.4123 24.92 23.564 26.7706 25.4159 27.2017C25.8799 27.3098 26.3438 27.3183 26.7855 27.2414C26.7192 27.23 26.6529 27.2171 26.5865 27.2017Z" fill="#67449E"/>
<path d="M10.3007 10.0579C10.3863 10.0778 10.4701 10.1014 10.5527 10.1273C10.5864 9.98326 10.6297 9.84405 10.6802 9.70893C7.22206 5.77794 2.92134 4.33155 1.36035 3.95339C1.02982 3.87335 0.710658 4.10485 0.683529 4.44247L0.514193 6.55313C0.491049 6.84176 0.739428 7.08387 1.0266 7.05059C4.60855 6.63557 7.929 8.45983 10.0233 10.0061C10.1157 10.0199 10.2081 10.0364 10.3007 10.0579Z" fill="#93603E"/>
<path d="M8.9749 8.01185C6.90279 6.68107 4.05841 5.42799 1.0266 5.77932C0.848354 5.79994 0.68517 5.71445 0.592475 5.57764L0.514193 6.55363C0.491049 6.84227 0.739428 7.08437 1.0266 7.05109C4.60855 6.63607 7.929 8.46033 10.0233 10.0066C10.1155 10.0203 10.2081 10.0368 10.3006 10.0584C10.3862 10.0783 10.47 10.1018 10.5525 10.1278C10.5863 9.98371 10.6296 9.84449 10.68 9.70937C10.1284 9.08207 9.55503 8.5184 8.9749 8.01185Z" fill="#7F573C"/>
<path d="M5.23823 16.6071C5.67657 16.0727 6.26773 15.6823 6.92913 15.4896C7.03613 15.6155 5.764 14.3578 6.19782 12.4942C6.50263 11.1847 7.52275 10.2285 8.74882 9.94131C7.13392 9.40811 4.82532 9.26608 2.40821 10.73C2.19839 10.8571 2.15532 11.144 2.32173 11.3242C2.66057 11.6913 3.27593 12.2818 4.10509 12.7658C4.32241 12.8926 4.35183 13.1909 4.16397 13.3583C3.47872 13.9689 2.84333 14.7763 2.32835 15.8418C2.22159 16.0626 2.34188 16.327 2.57948 16.3875C3.10712 16.5218 4.17177 16.6996 5.23823 16.6071Z" fill="#3BBC56"/>
<path d="M3.82173 16.388C3.58413 16.3276 3.46384 16.0631 3.57059 15.8423C4.08557 14.7768 4.72091 13.9695 5.40622 13.3588C5.59407 13.1914 5.5646 12.8931 5.34733 12.7662C4.51817 12.2824 3.90282 11.6917 3.56397 11.3247C3.39757 11.1444 3.44069 10.8575 3.65046 10.7305C4.83235 10.0147 5.98805 9.68345 7.04966 9.59362C5.68061 9.47661 4.06999 9.72399 2.40821 10.7305C2.19839 10.8575 2.15532 11.1444 2.32173 11.3247C2.66057 11.6917 3.27593 12.2824 4.10509 12.7662C4.32241 12.8931 4.35182 13.1914 4.16397 13.3588C3.47872 13.9695 2.84339 14.7768 2.32835 15.8423C2.22159 16.0631 2.34188 16.3275 2.57948 16.388C3.10589 16.5221 4.16696 16.6993 5.23096 16.6082C4.64567 16.5639 4.13737 16.4684 3.82173 16.388Z" fill="#30AA44"/>
<path d="M14.6552 7.57883C14.8498 7.62412 15.0363 7.68588 15.2143 7.76112C15.6525 7.0816 16.318 6.58368 17.0797 6.34784C17.2746 4.9884 16.8543 3.62059 16.6527 2.98848C16.5782 2.75481 16.3071 2.65045 16.0931 2.77016C15.06 3.34754 14.2918 4.02963 13.7229 4.74993C13.567 4.94739 13.2674 4.93567 13.1279 4.72631C12.5957 3.92733 11.9696 3.34813 11.583 3.03166C11.3932 2.87627 11.1094 2.93633 10.995 3.15336C9.65718 5.69088 10.0163 8.01512 10.6645 9.6009C11.2912 8.08086 13.0017 7.19399 14.6552 7.57883Z" fill="#3BBC56"/>
<path d="M12.0364 3.43354C11.8671 3.27165 11.7116 3.13671 11.583 3.03136C11.3932 2.87597 11.1094 2.93603 10.995 3.15306C9.65718 5.69058 10.0163 8.01481 10.6645 9.6006C10.8493 9.15241 11.1288 8.75989 11.4728 8.43821C11.1396 7.03976 11.1373 5.30052 12.0364 3.43354Z" fill="#30AA44"/>
<path d="M18.0082 12.9885C19.9095 12.9885 21.4509 11.4471 21.4509 9.54576C21.4509 7.64439 19.9095 6.10303 18.0082 6.10303C16.1068 6.10303 14.5654 7.64439 14.5654 9.54576C14.5654 11.4471 16.1068 12.9885 18.0082 12.9885Z" fill="#744EAA"/>
<path d="M18.398 12.8985C16.5462 12.4674 15.3944 10.6167 15.8255 8.76493C16.1485 7.37707 17.2689 6.38256 18.5895 6.1527C16.8059 5.84532 15.0704 6.97946 14.6549 8.76493C14.2238 10.6168 15.3755 12.4674 17.2274 12.8985C17.6914 13.0065 18.1554 13.0151 18.597 12.9381C18.5306 12.9268 18.4644 12.9139 18.398 12.8985Z" fill="#67449E"/>
<path d="M14.225 24.1677C16.1263 24.1677 17.6677 22.6263 17.6677 20.725C17.6677 18.8236 16.1263 17.2822 14.225 17.2822C12.3236 17.2822 10.7822 18.8236 10.7822 20.725C10.7822 22.6263 12.3236 24.1677 14.225 24.1677Z" fill="#744EAA"/>
<path d="M14.6148 24.0782C12.763 23.6471 11.6112 21.7964 12.0423 19.9446C12.3653 18.5568 13.4856 17.5623 14.8063 17.3324C13.0226 17.025 11.2872 18.1591 10.8717 19.9446C10.4406 21.7965 11.5923 23.6471 13.4442 24.0782C13.9082 24.1862 14.3722 24.1948 14.8138 24.1179C14.7475 24.1064 14.6811 24.0936 14.6148 24.0782Z" fill="#67449E"/>
<path d="M7.75817 22.1877C9.65954 22.1877 11.2009 20.6464 11.2009 18.745C11.2009 16.8436 9.65954 15.3022 7.75817 15.3022C5.8568 15.3022 4.31543 16.8436 4.31543 18.745C4.31543 20.6464 5.8568 22.1877 7.75817 22.1877Z" fill="#744EAA"/>
<path d="M8.14807 22.0982C6.29622 21.6671 5.14444 19.8164 5.57552 17.9646C5.8986 16.5768 7.01891 15.5823 8.33956 15.3524C6.55591 15.045 4.82048 16.1792 4.40487 17.9646C3.9738 19.8165 5.12552 21.6671 6.97743 22.0982C7.44143 22.2062 7.90538 22.2148 8.347 22.1379C8.28067 22.1265 8.21434 22.1137 8.14807 22.0982Z" fill="#67449E"/>
<path d="M13.7826 14.2068C15.6839 14.2068 17.2253 12.6654 17.2253 10.764C17.2253 8.86265 15.6839 7.32129 13.7826 7.32129C11.8812 7.32129 10.3398 8.86265 10.3398 10.764C10.3398 12.6654 11.8812 14.2068 13.7826 14.2068Z" fill="#553788"/>
<path d="M14.1741 14.1168C12.3222 13.6857 11.1704 11.835 11.6015 9.98321C11.9245 8.59559 13.0446 7.60125 14.3648 7.3711C12.5809 7.06325 10.8449 8.19745 10.4293 9.98321C9.99821 11.8351 11.1499 13.6857 13.0018 14.1168C13.4661 14.2248 13.9303 14.2334 14.3721 14.1563C14.3061 14.145 14.2401 14.1322 14.1741 14.1168Z" fill="#462E7A"/>
<path d="M18.6884 17.5375C20.5756 17.5375 22.1054 16.0077 22.1054 14.1206C22.1054 12.2334 20.5756 10.7036 18.6884 10.7036C16.8013 10.7036 15.2715 12.2334 15.2715 14.1206C15.2715 16.0077 16.8013 17.5375 18.6884 17.5375Z" fill="#9266CC"/>
<path d="M19.0858 17.4489C17.2477 17.0211 16.1046 15.1842 16.5324 13.3462C16.8528 11.9704 17.9626 10.984 19.2713 10.7544C17.4989 10.4459 15.7732 11.5721 15.3602 13.3462C14.9324 15.1842 16.0756 17.0211 17.9136 17.4489C18.3757 17.5565 18.8378 17.5646 19.2774 17.4874C19.2136 17.4763 19.1497 17.4638 19.0858 17.4489Z" fill="#7B54BA"/>
<path d="M23.9619 22.2948C25.849 22.2948 27.3788 20.765 27.3788 18.8779C27.3788 16.9908 25.849 15.4609 23.9619 15.4609C22.0747 15.4609 20.5449 16.9908 20.5449 18.8779C20.5449 20.765 22.0747 22.2948 23.9619 22.2948Z" fill="#9266CC"/>
<path d="M24.3602 22.2058C22.5221 21.7779 21.379 19.9411 21.8068 18.1031C22.1271 16.7272 23.237 15.7409 24.5457 15.5112C22.7733 15.2027 21.0476 16.329 20.6347 18.1031C20.2068 19.9411 21.35 21.7779 23.188 22.2058C23.6501 22.3133 24.1122 22.3215 24.5518 22.2443C24.488 22.2332 24.4241 22.2207 24.3602 22.2058Z" fill="#7B54BA"/>
<path d="M20.6523 26.8158C22.5394 26.8158 24.0693 25.286 24.0693 23.3989C24.0693 21.5118 22.5394 19.9819 20.6523 19.9819C18.7652 19.9819 17.2354 21.5118 17.2354 23.3989C17.2354 25.286 18.7652 26.8158 20.6523 26.8158Z" fill="#9266CC"/>
<path d="M21.0496 26.7268C19.2116 26.2989 18.0684 24.4621 18.4963 22.6241C18.8166 21.2482 19.9264 20.2618 21.2352 20.0322C19.4628 19.7237 17.7371 20.85 17.3241 22.6241C16.8963 24.4621 18.0394 26.2989 19.8775 26.7268C20.3396 26.8344 20.8017 26.8425 21.2413 26.7653C21.1774 26.7542 21.1136 26.7417 21.0496 26.7268Z" fill="#7B54BA"/>
<path d="M9.40914 16.6864C11.2963 16.6864 12.8261 15.1566 12.8261 13.2695C12.8261 11.3824 11.2963 9.85254 9.40914 9.85254C7.52201 9.85254 5.99219 11.3824 5.99219 13.2695C5.99219 15.1566 7.52201 16.6864 9.40914 16.6864Z" fill="#9266CC"/>
<path d="M9.80646 16.5974C7.96843 16.1695 6.82527 14.3327 7.25312 12.4947C7.57345 11.1188 8.68328 10.1325 9.99203 9.90282C8.21963 9.59433 6.49392 10.7206 6.08095 12.4947C5.6531 14.3327 6.79626 16.1695 8.6343 16.5974C9.09643 16.705 9.5585 16.7131 9.99813 16.6359C9.93426 16.6248 9.87039 16.6123 9.80646 16.5974Z" fill="#7B54BA"/>
<path d="M13.54 20.0502C15.4271 20.0502 16.957 18.5204 16.957 16.6333C16.957 14.7461 15.4271 13.2163 13.54 13.2163C11.6529 13.2163 10.123 14.7461 10.123 16.6333C10.123 18.5204 11.6529 20.0502 13.54 20.0502Z" fill="#AA8DD8"/>
<path d="M13.9227 19.9612C12.0846 19.5333 10.9415 17.6964 11.3693 15.8584C11.6896 14.4826 12.7994 13.4962 14.1082 13.2666C12.3358 12.9581 10.6101 14.0843 10.1972 15.8584C9.76931 17.6965 10.9125 19.5333 12.7505 19.9612C13.2126 20.0687 13.6747 20.0768 14.1143 19.9997C14.0504 19.9886 13.9865 19.976 13.9227 19.9612Z" fill="#987FC9"/>
<path d="M18.873 22.2948C20.7601 22.2948 22.29 20.765 22.29 18.8779C22.29 16.9908 20.7601 15.4609 18.873 15.4609C16.9859 15.4609 15.4561 16.9908 15.4561 18.8779C15.4561 20.765 16.9859 22.2948 18.873 22.2948Z" fill="#AA8DD8"/>
<path d="M19.2557 22.2058C17.4176 21.7779 16.2745 19.941 16.7023 18.1031C17.0226 16.7272 18.1324 15.7409 19.4412 15.5112C17.6688 15.2027 15.9431 16.329 15.5302 18.1031C15.1023 19.9411 16.2455 21.7779 18.0835 22.2058C18.5456 22.3133 19.0077 22.3215 19.4473 22.2443C19.3834 22.2332 19.3195 22.2206 19.2557 22.2058Z" fill="#987FC9"/>
<path d="M27.4641 20.2369C28.6742 17.0409 25.388 13.9341 22.2469 15.3748C22.3432 15.0947 22.4052 14.818 22.4369 14.5064C22.4615 14.2649 22.2856 14.0492 22.044 14.0246C21.8024 13.9999 21.5868 14.176 21.5622 14.4175C21.5118 14.9148 21.3444 15.3676 21.0876 15.7584C19.9292 14.9 18.4054 14.7728 17.1362 15.375C16.8653 14.5946 16.3511 13.929 15.6944 13.4734C16.2733 10.8317 19.8244 10.2928 21.177 12.6307C21.2987 12.8408 21.5675 12.9126 21.7777 12.7911C21.9878 12.6695 22.0596 12.4005 21.938 12.1904C21.7572 11.8779 21.5333 11.5956 21.2771 11.3485C22.7912 8.58926 20.514 5.25047 17.3819 5.67521C17.4402 4.47451 17.1779 3.42129 16.9974 2.8551C16.9219 2.61849 16.746 2.43041 16.5147 2.33906C16.282 2.24719 16.0232 2.26453 15.8045 2.38664C14.8269 2.93303 14.0066 3.6106 13.3648 4.40156C12.8268 3.61646 12.2135 3.0406 11.7874 2.69168C11.3829 2.36062 10.7765 2.48514 10.5321 2.9485C9.49384 4.91789 9.41046 6.6965 9.67144 8.10808C6.42095 5.01703 2.87515 3.88629 1.3908 3.52658C0.79648 3.38297 0.220855 3.80221 0.172339 4.40777L0.00294485 6.51855C-0.0424067 7.08428 0.442632 7.55291 1.00414 7.48781C3.82378 7.16115 6.41404 8.21848 8.35953 9.4217C6.25613 8.82715 4.10199 9.14637 2.10763 10.3543C1.65875 10.626 1.57173 11.2392 1.92576 11.6227C2.29923 12.0273 2.91054 12.6054 3.72617 13.0958C2.97459 13.7834 2.34699 14.6426 1.85955 15.6509C1.63132 16.1231 1.8923 16.685 2.39808 16.8137C2.85177 16.9293 3.49214 17.05 4.23142 17.0698C2.97136 19.627 4.8357 22.6281 7.69191 22.6281C8.69568 22.6281 9.64572 22.2322 10.3524 21.5602C10.979 24.4721 14.5283 25.6025 16.7286 23.5939C16.8124 25.1633 17.8596 26.587 19.4213 27.0768C19.653 27.1495 19.8996 27.0206 19.9723 26.7889C20.0449 26.5573 19.9161 26.3106 19.6845 26.2379C18.1484 25.7562 17.2659 24.1086 17.7212 22.5623C19.4308 23.0553 21.2201 22.3095 22.0998 20.8409C24.3447 22.1764 23.891 25.4752 21.4719 26.239C21.2404 26.312 21.1119 26.559 21.1851 26.7905C21.2583 27.0223 21.5055 27.1504 21.7366 27.0773C22.2636 26.9109 22.741 26.6344 23.1426 26.2758C24.3286 27.7625 26.4905 28.1914 28.1871 27.1356C30.9062 25.4433 30.4869 21.3312 27.4641 20.2369ZM16.3653 15.8601C15.3411 16.688 14.8287 17.9723 14.953 19.2332C12.6141 20.5498 9.82853 18.3224 10.6594 15.7284C11.3354 13.638 13.9863 12.9544 15.5793 14.5167C15.9745 14.9048 16.2328 15.3717 16.3653 15.8601ZM14.8959 13.0481C14.3428 12.8326 13.7327 12.7472 13.1627 12.7971C12.9952 11.4596 12.1449 10.2965 10.9016 9.74601C10.9131 9.70013 10.9972 9.51738 11.0274 9.45691C11.6165 8.28088 12.9237 7.62023 14.228 7.86158C14.2286 7.8617 14.3643 7.88953 14.3643 7.89C15.6955 8.19955 16.6668 9.41549 16.6667 10.7844C15.7923 11.2903 15.1674 12.1082 14.8959 13.0481ZM18.5703 6.59601C20.4277 7.02838 21.412 9.08508 20.57 10.8044C19.6969 10.2845 18.5913 10.1095 17.5284 10.4166C17.4127 9.19576 16.7106 8.11066 15.6921 7.49373C16.4345 6.68086 17.5408 6.35637 18.5703 6.59601ZM11.281 3.41367C12.7491 4.63805 12.5977 5.30062 13.327 5.3301C14.1489 5.36531 14.0066 4.41891 16.1793 3.18451C16.3537 3.74941 16.593 4.77592 16.4844 5.90713C15.8685 6.14982 15.2961 6.56109 14.8604 7.11568C13.3691 6.63861 11.6589 7.10092 10.6386 8.42596C10.1994 6.76693 10.4142 5.08523 11.281 3.41367ZM0.903003 6.61447C0.892339 6.61582 0.878335 6.60293 0.879332 6.58881C1.06086 4.32627 1.03419 4.44035 1.09285 4.39793C1.18818 4.32867 5.60199 5.30748 9.32492 8.99642C6.82437 7.3343 3.91062 6.26601 0.903003 6.61447ZM9.33546 10.2914C10.8738 10.2914 12.1456 11.4752 12.2975 12.9731C10.854 13.4464 9.82045 14.7141 9.65878 16.2292C8.47988 16.3601 7.28791 15.7659 6.70537 14.6597C5.6641 12.6926 7.08705 10.2914 9.33546 10.2914ZM2.67839 15.9776C3.78078 13.7371 4.73293 13.8226 4.65084 13.003C4.57818 12.276 3.92304 12.4644 2.61634 11.0742C4.10439 10.1867 5.63439 9.84984 7.18091 10.0671C5.47906 11.2066 4.96478 13.5081 6.04771 15.2827C5.58072 15.503 5.1616 15.8213 4.83441 16.1822C3.92673 16.2354 3.12283 16.0862 2.67839 15.9776ZM10.311 20.1861C9.22384 22.197 6.36711 22.278 5.16388 20.3445C4.16627 18.7415 4.90132 16.6605 6.61003 15.9979C6.97865 16.3675 7.414 16.6543 7.89576 16.8472C7.89834 16.8482 7.90091 16.8493 7.90355 16.8503C8.45093 17.0681 9.06394 17.1653 9.66523 17.1124C9.75781 17.858 10.0776 18.5948 10.5997 19.1895C10.4486 19.5302 10.361 19.8517 10.311 20.1861ZM11.5973 22.3244C11.2446 21.7578 11.0958 21.1044 11.1633 20.4511C11.2524 20.2669 11.3272 20.0733 11.3872 19.8718C12.4952 20.5947 13.9208 20.7056 15.1488 20.1228C15.4413 20.9631 16.017 21.6755 16.7608 22.1359C15.6992 24.161 12.8143 24.2801 11.5973 22.3244ZM18.7471 21.8343C14.6719 21.775 15.0178 15.7754 18.8722 15.882C22.7392 15.9813 22.7141 21.8947 18.7471 21.8343ZM22.4643 20.0352C22.8368 18.8765 22.6352 17.602 21.926 16.6114C23.3125 15.4334 25.421 15.7588 26.3833 17.3051C27.5663 19.2058 26.2952 21.6574 24.1103 21.8447C23.7788 21.0906 23.2124 20.4551 22.4643 20.0352ZM23.7393 25.6092C24.3178 24.7854 24.5609 23.7282 24.373 22.7007C25.4644 22.5547 26.4427 21.9483 27.0593 21.0263C28.5196 21.4939 29.4027 23.0173 29.0491 24.5364C28.4693 27.0269 25.2192 27.6613 23.7393 25.6092Z" fill="#4F4F4F"/>
</g>
<defs>
<clipPath id="clip0">
<rect width="30" height="30" fill="white"/>
</clipPath>
</defs>
</svg>
