<svg width="38" height="38" viewBox="0 0 38 38" fill="none" xmlns="http://www.w3.org/2000/svg">
<g clip-path="url(#clip0)">
<path d="M18.0551 15.8667C18.0551 15.8667 17.9067 18.5615 17.0843 21.5904C15.8397 26.1771 13.052 31.529 6.90151 29.4413C6.80948 29.4101 6.71967 29.3782 6.63061 29.3448C0.85342 27.2021 1.81752 21.4902 3.56983 17.1811C4.77959 14.2056 6.36491 11.8989 6.36491 11.8989C6.36491 11.8989 9.30619 12.5803 12.3069 13.5985C13.6183 14.0431 14.8808 14.5322 15.8872 14.9419C17.1838 15.4703 18.0551 15.8667 18.0551 15.8667Z" fill="#EFDFDA"/>
<path d="M18.0554 15.8667C18.0554 15.8667 17.9069 18.5615 17.0846 21.5904C15.8399 26.1771 13.0523 31.529 6.90176 29.4413C6.80973 29.4101 6.71992 29.3782 6.63086 29.3448C14.5181 28.2419 15.7086 17.8498 15.8874 14.9419C17.184 15.4703 18.0554 15.8667 18.0554 15.8667Z" fill="#EFDFDA"/>
<path d="M17.0843 21.5903C15.8397 26.1771 13.052 31.529 6.90151 29.4412C6.80947 29.41 6.71967 29.3781 6.63061 29.3447C0.85342 27.202 1.81752 21.4901 3.56983 17.181C3.56983 17.181 6.2135 16.4885 7.99029 17.9848C10.0558 19.7237 10.4544 21.1784 12.4479 22.006C13.1055 22.2783 13.7474 22.3726 14.3338 22.3644C15.9087 22.3444 17.0843 21.5903 17.0843 21.5903Z" fill="#FF5F85"/>
<path d="M17.0846 21.5903C15.8399 26.1771 13.0523 31.529 6.90176 29.4412C6.80973 29.41 6.71992 29.3781 6.63086 29.3447C10.7671 28.7665 13.0619 25.633 14.334 22.3644C15.9089 22.3444 17.0846 21.5903 17.0846 21.5903Z" fill="#B2527E"/>
<path d="M31.636 17.8986C31.4631 17.9691 31.2835 18.0359 31.0979 18.099C25.5375 19.9864 22.7261 15.7938 21.3181 11.5826C20.1395 8.06016 19.9443 4.52438 19.9443 4.52438C19.9443 4.52438 22.6919 3.27527 25.6926 2.25625C26.9461 1.83098 28.1886 1.46508 29.2105 1.1823C30.637 0.787461 31.6345 0.556641 31.6345 0.556641C31.6345 0.556641 33.7156 3.58477 34.9284 7.1777C36.2836 11.19 36.556 15.908 31.636 17.8986Z" fill="#EFDFDA"/>
<path d="M31.6364 17.8986C35.8342 11.5714 31.0508 3.7666 29.2109 1.1823C30.6374 0.787461 31.6349 0.556641 31.6349 0.556641C31.6349 0.556641 33.716 3.58477 34.9288 7.1777C36.284 11.19 36.5564 15.908 31.6364 17.8986Z" fill="#EFDFDA"/>
<path d="M31.6363 17.8985C31.4633 17.969 31.2837 18.0358 31.0982 18.0989C25.5377 19.9863 22.7263 15.7937 21.3184 11.5825L21.4074 11.5921C21.4074 11.5921 23.6206 13.0127 26.0431 12.0078C28.0374 11.1802 28.4359 9.72554 30.5007 7.98659C31.07 7.50714 31.7283 7.25257 32.3599 7.12862C33.7003 6.86366 34.9212 7.1828 34.9212 7.1828L34.9286 7.17761C36.2838 11.1899 36.5562 15.908 31.6363 17.8985Z" fill="white"/>
<path d="M31.6367 17.8985C33.9702 14.3813 33.5286 10.4084 32.3604 7.12862C33.7007 6.86366 34.9216 7.1828 34.9216 7.1828L34.9291 7.17761C36.2843 11.1899 36.5567 15.908 31.6367 17.8985Z" fill="#FBF1D8"/>
<path d="M18.2852 15.3599C18.2575 15.3473 15.4782 14.0874 12.4857 13.0716C12.1644 12.9626 11.8288 12.8524 11.4881 12.7438C11.1951 12.6505 10.8821 12.8124 10.7888 13.1054C10.6955 13.3983 10.8574 13.7114 11.1503 13.8047C11.4844 13.911 11.8133 14.0191 12.1279 14.1258C14.4465 14.9127 16.636 15.8495 17.4697 16.2157C17.3988 17.0244 17.1792 19.0212 16.6047 21.221C16.0675 21.4997 14.4064 22.2155 12.6613 21.4915C11.5868 21.0456 11.0182 20.3851 10.2984 19.5489C9.78766 18.9555 9.20875 18.2829 8.34893 17.559C7.09909 16.5067 5.50828 16.4068 4.4785 16.4831C5.31041 14.6385 6.21662 13.155 6.6157 12.5317C7.02071 12.6309 7.72401 12.8082 8.58576 13.0457C8.88241 13.1273 9.18864 12.9533 9.27036 12.657C9.35207 12.3607 9.17803 12.0542 8.88167 11.9724C7.49007 11.5889 6.50051 11.3589 6.49064 11.3566C6.26798 11.3051 6.03598 11.395 5.90632 11.5837C5.67171 11.925 0.18175 20.0084 2.04924 25.6307C2.68225 27.5361 4.07727 28.9285 6.19955 29.7757L4.2283 35.5536C2.56365 34.9528 0.803109 34.1685 0.783738 34.1598C0.502969 34.0345 0.173809 34.1603 0.0485273 34.4411C-0.0768282 34.7218 0.0490468 35.051 0.329742 35.1763C0.419547 35.2164 2.54925 36.1653 4.39507 36.7918C6.24082 37.4182 8.50872 37.962 8.60439 37.9849C8.64788 37.9953 8.69137 38.0003 8.73413 38.0003C8.98588 38.0003 9.2141 37.8284 9.27511 37.5728C9.3465 37.2739 9.16207 36.9735 8.86297 36.9021C8.84226 36.8972 6.96876 36.4479 5.28258 35.9115L7.25383 30.1336C8.03246 30.3527 8.78333 30.4625 9.50192 30.4624C10.0856 30.4624 10.648 30.3899 11.1861 30.2449C11.483 30.1649 11.6587 29.8594 11.5788 29.5626C11.4987 29.2658 11.1931 29.0899 10.8965 29.1699C9.76346 29.4753 8.4797 29.3893 7.08061 28.9144C5.01139 28.2121 3.67426 26.9896 3.10619 25.2811C2.3433 22.9865 3.00986 20.1255 3.97834 17.666C4.64475 17.553 6.40774 17.3801 7.6319 18.4107C8.4233 19.077 8.97125 19.7136 9.45471 20.2753C10.2386 21.186 10.9156 21.9726 12.2347 22.5199C12.9463 22.8151 13.6381 22.9241 14.2723 22.9241C15.0163 22.9241 15.6804 22.7739 16.2024 22.5986C15.5346 24.6508 14.5337 26.7031 13.0417 28.0003C12.8097 28.202 12.7851 28.5536 12.9869 28.7856C13.0969 28.9122 13.2516 28.977 13.4072 28.977C13.5367 28.977 13.6668 28.9321 13.7722 28.8404C18.0545 25.1173 18.59 16.2721 18.6106 15.8973C18.6233 15.6682 18.4941 15.4549 18.2852 15.3599Z" fill="#4F4F4F"/>
<path d="M37.9508 23.0988C37.8255 22.8181 37.4962 22.6922 37.2157 22.8175C37.1962 22.8262 35.4356 23.6105 33.7709 24.2113L31.7997 18.4334C33.9221 17.5862 35.3171 16.1939 35.9499 14.2884C37.8176 8.66614 32.3276 0.582682 32.093 0.24135C31.9634 0.0526856 31.7313 -0.0371191 31.5087 0.0143145C31.479 0.0212169 28.506 0.713604 25.5136 1.72929C25.2224 1.82807 25.0666 2.14417 25.1654 2.43533C25.2642 2.72649 25.5804 2.8822 25.8714 2.78349C28.191 1.99625 30.4998 1.40629 31.3837 1.18942C31.8764 1.95892 33.1418 4.03927 34.0864 6.49146C33.3014 6.42578 32.1582 6.4565 31.0911 6.95637C30.8127 7.08677 30.6927 7.41823 30.8231 7.69662C30.9178 7.89865 31.1184 8.01725 31.3276 8.01725C31.4066 8.01725 31.4869 8.00025 31.5634 7.96455C32.6744 7.44406 33.9494 7.57275 34.5019 7.66567C35.181 9.78076 35.5206 12.0513 34.8931 13.9386C34.3251 15.6472 32.9879 16.8697 30.9187 17.5719C28.8479 18.2747 27.0392 18.1189 25.5432 17.1085C24.0783 16.1193 23.0321 14.4282 22.2875 12.6C22.8097 12.7755 23.4741 12.9257 24.2186 12.9257C24.8526 12.9257 25.5448 12.8167 26.2562 12.5215C27.5752 11.9742 28.2522 11.1876 29.0362 10.2769C29.2374 10.0431 29.4456 9.80132 29.6751 9.55165C29.8832 9.32535 29.8685 8.97326 29.6422 8.76515C29.4158 8.55697 29.0637 8.57181 28.8557 8.7981C28.6137 9.06121 28.3995 9.30999 28.1924 9.55068C27.4726 10.3869 26.9041 11.0475 25.8295 11.4933C23.9208 12.2853 22.1118 11.3541 21.7664 11.1581C20.9114 8.48757 20.6146 5.83663 20.5296 4.87304C21.0238 4.65588 21.9933 4.23862 23.1776 3.77342C23.4638 3.66105 23.6047 3.33798 23.4923 3.05179C23.3799 2.76568 23.0565 2.62489 22.7707 2.73718C21.0192 3.42504 19.7268 4.01159 19.7139 4.01738C19.5051 4.11238 19.3759 4.32568 19.3886 4.55479C19.4113 4.9679 20.0038 14.7095 24.9185 18.0302C25.9945 18.7572 27.1915 19.1213 28.497 19.1213C29.2144 19.1213 29.9646 19.0113 30.7454 18.7912L32.7166 24.569C31.0304 25.1054 29.1569 25.5546 29.1362 25.5595C28.8372 25.6309 28.6527 25.9312 28.7241 26.2302C28.7851 26.4858 29.0133 26.6577 29.2651 26.6577C29.3078 26.6577 29.3513 26.6527 29.3948 26.6423C29.4904 26.6194 31.7584 26.0757 33.6041 25.4492C35.4499 24.8227 37.5797 23.8739 37.6695 23.8338C37.9502 23.7087 38.0762 23.3795 37.9508 23.0988Z" fill="#4F4F4F"/>
<path d="M7.91309 26.311C8.22051 26.311 8.46973 26.0618 8.46973 25.7544C8.46973 25.447 8.22051 25.1978 7.91309 25.1978C7.60566 25.1978 7.35645 25.447 7.35645 25.7544C7.35645 26.0618 7.60566 26.311 7.91309 26.311Z" fill="#4F4F4F"/>
<path d="M5.61621 22.147C5.92364 22.147 6.17285 21.8978 6.17285 21.5903C6.17285 21.2829 5.92364 21.0337 5.61621 21.0337C5.30879 21.0337 5.05957 21.2829 5.05957 21.5903C5.05957 21.8978 5.30879 22.147 5.61621 22.147Z" fill="#4F4F4F"/>
<path d="M32.7598 11.4526C33.0672 11.4526 33.3164 11.2034 33.3164 10.896C33.3164 10.5886 33.0672 10.3394 32.7598 10.3394C32.4523 10.3394 32.2031 10.5886 32.2031 10.896C32.2031 11.2034 32.4523 11.4526 32.7598 11.4526Z" fill="#4F4F4F"/>
</g>
<defs>
<clipPath id="clip0">
<rect width="38" height="38" fill="white"/>
</clipPath>
</defs>
</svg>
