<svg width="30" height="30" viewBox="0 0 30 30" fill="none" xmlns="http://www.w3.org/2000/svg">
<g clip-path="url(#clip0)">
<path d="M22.2078 27.4829C15.3154 31.4622 6.50224 29.1007 2.5229 22.2083C-1.45644 15.3159 0.90501 6.50261 7.79745 2.52334C14.6899 -1.45594 23.503 0.905564 27.4824 7.79789C31.4617 14.6902 29.1002 23.5035 22.2078 27.4829Z" fill="#78D2FA"/>
<path d="M16.0202 10.6901C15.9165 10.7144 15.7155 10.7655 15.6286 10.8352C15.5201 10.9222 15.6896 11.0353 15.6277 11.0849C15.5208 11.1705 15.4433 11.3256 15.2143 11.311C14.7361 11.2804 14.0011 10.6618 13.564 10.428C14.2686 9.70292 13.1539 9.59429 12.7195 9.63062C12.157 9.67767 11.1834 9.62692 10.6753 9.91304C10.3226 10.1116 9.84855 10.9358 9.56443 11.2632C9.16893 11.7188 8.77096 12.1143 8.51326 12.6599C7.56786 14.661 9.02297 16.9584 11.3099 16.6897C11.9448 16.6151 12.6108 16.2159 13.1736 16.7427C13.5882 17.1309 13.3688 17.4962 13.4787 17.9489C13.5739 18.3406 14.0076 18.5816 14.1578 18.9414C14.4456 19.631 14.2634 20.0624 14.0579 20.6984C13.7882 21.5331 14.4855 22.5241 14.7569 23.3296C14.8936 23.7352 15.2918 24.871 15.6828 25.0487C16.2976 25.3282 17.2612 24.49 17.6283 24.0392C17.9153 23.6867 17.8216 23.3287 18.0143 22.9987C18.223 22.6416 18.487 22.5344 18.6332 22.0739C18.7908 21.5776 18.9545 21.4542 19.2872 21.092C19.823 20.5091 19.7397 20.1683 19.5256 19.4771C19.0806 18.0412 20.697 17.37 21.4251 16.3159C22.1854 15.2152 20.7157 15.5822 20.1398 15.2057C19.5476 14.8186 19.2888 14.083 19.0034 13.4731C18.7179 12.8632 18.4817 11.9467 18.0091 11.4457C17.6449 11.06 16.5373 10.8811 16.0202 10.6901Z" fill="#A5DC69"/>
<path d="M23.4589 20.323C23.2291 21.0972 22.9995 21.8715 22.7697 22.6458C22.6091 23.187 22.0413 24.9578 21.2446 23.8236C20.9418 23.3925 21.1881 22.8277 21.357 22.4311C21.5701 21.9307 21.2821 21.6788 21.4307 21.205C21.6011 20.6621 22.3021 20.6435 22.6338 20.2616C22.8652 19.9953 23.0078 19.572 23.1769 19.2603C23.271 19.6146 23.365 19.9687 23.4589 20.323Z" fill="#A5DC69"/>
<path d="M27.4831 7.79734C25.0011 3.49838 20.6384 0.962383 16.0343 0.62793L14.1498 2.99184L10.1109 4.40781L9.02734 7.03445L10.6987 9.3758L10.8764 8.8808C11.173 8.05434 11.9565 7.50315 12.8345 7.50315H15.5892L18.7556 8.61584L19.8462 9.65693V10.3182L21.3624 13.2225L21.8039 13.0597C22.7574 12.7081 23.6231 12.154 24.3417 11.4354L23.9757 10.8863C23.8592 10.7117 23.9845 10.4778 24.1943 10.4778H25.0779C25.3366 10.4778 25.5824 10.5912 25.7504 10.7879L26.4722 11.633C26.541 11.7135 26.5947 11.8057 26.631 11.9052L27.4275 14.0956L27.8066 13.7165C28.0457 13.4774 28.1668 13.1516 28.1724 12.8136C28.1769 12.5417 28.2948 12.2839 28.4981 12.1026L28.7885 11.8436C28.8615 11.7785 28.9429 11.7256 29.0297 11.6856C28.714 10.3534 28.2028 9.04393 27.4831 7.79734Z" fill="#A5DC69"/>
<path d="M5.92457 8.36041L6.61381 7.62184C7.11637 7.0833 7.25875 6.30107 6.97809 5.61998C6.68137 4.89986 6.0308 4.43299 5.31068 4.33643C2.76537 6.6449 1.18281 9.74855 0.727539 13.0361C1.26566 13.5065 1.82881 14.01 1.82559 14.0544C1.81938 14.1393 3.84174 13.8002 3.84174 13.8002L2.80064 12.273L4.29578 11.2039L5.92457 8.36041Z" fill="#A5DC69"/>
<path d="M7.32645 22.7189C7.97613 22.5079 8.33168 21.8101 8.12063 21.1605L7.93506 20.5892C7.85397 20.3397 7.85438 20.0709 7.93617 19.8215C8.16803 19.1148 7.72811 18.3648 6.99814 18.2221L5.54191 17.9375L2.88182 15.915L0.682617 16.6295C0.898594 18.5393 1.50135 20.437 2.52369 22.2078C3.46928 23.8456 4.68814 25.2269 6.08889 26.3287L6.7442 22.9081L7.32645 22.7189Z" fill="#A5DC69"/>
<path d="M21.9141 26.9757L21.8915 26.9887C21.6117 27.151 21.5165 27.5096 21.6788 27.7895C21.7875 27.9768 21.984 28.0815 22.1861 28.0815C22.2858 28.0815 22.3871 28.0559 22.4796 28.0022L22.5021 27.9892C22.782 27.8268 22.8772 27.4683 22.7149 27.1884C22.5526 26.9086 22.1941 26.8133 21.9141 26.9757Z" fill="black"/>
<path d="M27.9899 7.50561C25.987 4.03657 22.7532 1.55518 18.884 0.518422C15.0149 -0.518336 10.9736 0.0137537 7.50455 2.01655C4.0355 4.01934 1.55412 7.25325 0.517419 11.1224C-0.51928 14.9915 0.012751 19.0329 2.01554 22.5019C3.81209 25.6136 6.66748 27.9785 10.0557 29.1608C11.6618 29.7212 13.3385 30.0009 15.0126 30.0009C16.8328 30.0009 18.6497 29.67 20.3672 29.0099C20.6692 28.8939 20.8199 28.5549 20.7038 28.2528C20.5877 27.9508 20.2486 27.7999 19.9467 27.9162C15.3752 29.6733 10.4263 28.8749 6.72882 26.0996L7.25377 23.3594L7.50672 23.2773C8.46256 22.9667 8.98755 21.9364 8.67712 20.9805L8.4915 20.4093C8.44855 20.2771 8.44879 20.1374 8.49209 20.0053C8.65492 19.5089 8.59674 18.9658 8.33242 18.5151C8.0681 18.0644 7.6225 17.7484 7.10974 17.6482L5.78728 17.3898L3.23564 15.4498C3.08277 15.3335 2.88267 15.2996 2.69998 15.3589L1.20607 15.8441C1.17437 15.3098 1.1739 14.7757 1.20402 14.2444C1.26297 14.2993 1.30134 14.3366 1.32496 14.3611C1.3542 14.4098 1.39041 14.4544 1.43283 14.4931C1.55482 14.6042 1.66533 14.6546 1.89736 14.6546C2.11058 14.6545 2.42623 14.612 2.94742 14.535C3.44172 14.462 3.93343 14.3797 3.9383 14.3788C4.13535 14.3458 4.30193 14.2146 4.38033 14.0309C4.45873 13.8472 4.43804 13.6362 4.32549 13.471L3.60707 12.4173L4.63609 11.6815C4.70465 11.6324 4.76183 11.5692 4.80373 11.4961L6.39883 8.71141L7.04177 8.02247C7.69879 7.31829 7.88629 6.28803 7.51937 5.39764C7.30293 4.87247 6.92488 4.43524 6.45203 4.14057C6.96414 3.73797 7.51017 3.36625 8.09049 3.03127C10.2197 1.80198 12.5433 1.20625 14.8424 1.18346L13.7962 2.4959L9.91638 3.8561C9.75883 3.91129 9.63226 4.03118 9.56863 4.18557L8.48511 6.81221C8.40818 6.99883 8.43261 7.21176 8.54986 7.37606L10.1324 9.59278C9.90572 9.79956 9.68511 10.1007 9.42162 10.4747C9.30607 10.6387 9.19697 10.7935 9.12156 10.8804C9.05599 10.956 8.99037 11.0298 8.92533 11.1029C8.58496 11.4858 8.23304 11.8819 7.98302 12.4108C7.4333 13.5745 7.54433 14.9269 8.27277 15.9405C8.97713 16.9205 10.1383 17.4186 11.3777 17.2728C11.5796 17.2492 11.7679 17.2026 11.9501 17.1575C12.4524 17.0332 12.6115 17.0208 12.7727 17.1716C12.8511 17.245 12.8583 17.2589 12.8567 17.5078C12.8556 17.6662 12.8543 17.8633 12.9089 18.0884C12.9964 18.4485 13.2226 18.6973 13.4042 18.8972C13.4945 18.9965 13.5879 19.0993 13.6166 19.1683C13.7994 19.6062 13.7198 19.8487 13.5454 20.3802C13.5305 20.4256 13.5153 20.4721 13.5 20.5196C13.2351 21.3397 13.6043 22.1531 13.9301 22.8707C14.0359 23.1037 14.1358 23.3236 14.2013 23.5181C14.7281 25.0813 15.123 25.4393 15.44 25.5834C15.606 25.6589 15.7778 25.692 15.9513 25.6919C16.7959 25.6919 17.6773 24.9077 18.0822 24.4105C18.3365 24.0983 18.3991 23.7857 18.4448 23.5574C18.4676 23.4438 18.4855 23.3542 18.5198 23.2956C18.5721 23.2059 18.6338 23.1364 18.712 23.0484C18.869 22.8715 19.0645 22.6515 19.1912 22.2525C19.2874 21.9494 19.3573 21.8751 19.5888 21.6286C19.6291 21.5857 19.6721 21.5399 19.7182 21.4898C20.4986 20.6406 20.2976 19.9919 20.0847 19.305C19.9056 18.7271 20.2189 18.3575 20.9764 17.6521C21.3048 17.3463 21.6443 17.0301 21.9067 16.6503C22.0216 16.484 22.371 15.9781 22.1547 15.4768C21.9428 14.9852 21.4042 14.9025 20.9714 14.8362C20.8005 14.81 20.5422 14.7704 20.46 14.7166C20.0975 14.4796 19.8757 13.985 19.6612 13.5065C19.6185 13.4113 19.5763 13.3173 19.5336 13.2261C19.4574 13.0633 19.3813 12.8664 19.3008 12.6579C19.0876 12.1062 18.846 11.4808 18.4347 11.0449C18.0651 10.6532 17.3682 10.4645 16.7534 10.298C16.5466 10.2421 16.3514 10.1892 16.2227 10.1417C16.1148 10.1018 15.9978 10.0946 15.886 10.1209C15.5868 10.191 15.4001 10.2683 15.2615 10.3794C15.2249 10.4088 15.1164 10.5051 15.0529 10.6601C14.8384 10.5571 14.5434 10.3605 14.3619 10.2395C14.3581 10.237 14.3543 10.2345 14.3506 10.232C14.4118 9.98717 14.3564 9.79071 14.2984 9.66801C13.971 8.97567 12.8846 9.02987 12.6702 9.04809C12.5485 9.05829 12.3944 9.06374 12.2315 9.06948C11.9755 9.07856 11.6927 9.08875 11.4128 9.12016L11.4272 9.07997C11.6396 8.48799 12.2049 8.0902 12.8339 8.0902H13.1669C13.4905 8.0902 13.7528 7.82782 13.7528 7.50432C13.7528 7.18077 13.4904 6.91844 13.1669 6.91844H12.8339C11.9001 6.91844 11.0451 7.40987 10.5658 8.18336L9.69191 6.95916L10.5517 4.87504L14.343 3.54584C14.4469 3.5094 14.5386 3.44436 14.6073 3.35817L16.2926 1.24416C20.5988 1.65379 24.6524 4.06821 26.9751 8.09137C27.5938 9.16299 28.0515 10.2912 28.3558 11.445L28.1074 11.6665C27.7832 11.9558 27.5932 12.3707 27.586 12.8049C27.5859 12.8097 27.5858 12.8144 27.5856 12.8191L27.181 11.7063C27.1207 11.5402 27.0319 11.3879 26.9171 11.2537L26.1953 10.4086C25.9155 10.081 25.508 9.89319 25.0773 9.89319H24.1937C23.8801 9.89319 23.5935 10.065 23.4455 10.3414C23.2976 10.6178 23.3137 10.9517 23.4877 11.2125L23.5771 11.3468C23.0062 11.8377 22.3458 12.2306 21.6427 12.4956L20.4316 10.1757V9.65811C20.4316 9.49803 20.3661 9.34481 20.2503 9.23436L19.1597 8.19321C19.0995 8.13579 19.0278 8.09184 18.9493 8.06424L17.9675 7.71924C17.6621 7.61178 17.3277 7.7725 17.2205 8.07772C17.1132 8.38305 17.2737 8.71745 17.579 8.82473L18.4417 9.12795L19.2598 9.90883V10.3195C19.2598 10.4139 19.2827 10.5069 19.3264 10.5906L20.8426 13.4949C20.9789 13.7563 21.2884 13.8757 21.5646 13.7735L22.0061 13.6107C23.0318 13.2324 23.9825 12.624 24.7555 11.8511C24.9529 11.6536 24.9837 11.3443 24.8287 11.1118L24.7975 11.065H25.0773C25.1648 11.065 25.2476 11.1032 25.3044 11.1697L26.0262 12.0148C26.0495 12.0421 26.0675 12.0729 26.0798 12.1067L26.8763 14.2971C26.9448 14.4853 27.1046 14.6255 27.3 14.6688C27.3422 14.6781 27.3846 14.6827 27.4269 14.6827C27.5806 14.6827 27.7302 14.6222 27.8411 14.5111L28.2203 14.1319C28.4604 13.8917 28.6257 13.5879 28.7047 13.251C29.2911 17.9505 27.4484 22.8119 23.5534 25.869C23.2988 26.0688 23.2544 26.437 23.4543 26.6916C23.654 26.9462 24.0222 26.9906 24.2769 26.7907C27.0889 24.5837 29.0208 21.427 29.7166 17.902C30.4189 14.3431 29.8057 10.6508 27.9899 7.50561ZM2.77047 16.5681L5.18646 18.4051C5.25789 18.4594 5.34074 18.4966 5.42875 18.5137L6.88492 18.7983C7.07078 18.8346 7.22582 18.9445 7.32162 19.1079C7.41742 19.2712 7.43757 19.4601 7.37863 19.6401C7.25734 20.01 7.25675 20.4012 7.37705 20.7714L7.56267 21.3425C7.67359 21.6839 7.48597 22.0519 7.14466 22.1628L6.56242 22.352C6.35927 22.418 6.20822 22.5893 6.16808 22.799L5.69945 25.2452C4.6692 24.3023 3.76463 23.1878 3.03039 21.916C2.13455 20.3647 1.57486 18.7099 1.32818 17.0367L2.77047 16.5681ZM1.24058 14.0915C1.24222 14.117 1.24545 14.1422 1.25031 14.1672C1.24556 14.1436 1.24228 14.1183 1.24058 14.0915ZM6.43597 5.84407C6.62875 6.31182 6.53019 6.85311 6.18507 7.22307L5.49584 7.96153C5.46508 7.99452 5.43818 8.03096 5.41574 8.0701L3.85058 10.8027L2.45951 11.7974C2.20041 11.9826 2.13677 12.3408 2.31619 12.604L2.83644 13.3672C2.53656 13.4118 2.26744 13.4486 2.08849 13.4681C2.0541 13.4351 2.01812 13.4017 1.98091 13.3671C1.84164 13.2377 1.6481 13.0649 1.35959 12.8124C1.83543 9.86735 3.25457 7.09282 5.48652 4.97495C5.91396 5.10942 6.26465 5.42829 6.43597 5.84407ZM12.273 10.2406C12.4504 10.2343 12.6181 10.2283 12.7679 10.2158C12.8469 10.2092 12.9347 10.2104 13.0175 10.2169C12.9805 10.3118 12.9685 10.416 12.9846 10.5193C13.0128 10.7011 13.1249 10.859 13.287 10.9458C13.397 11.0047 13.55 11.1067 13.7119 11.2147C14.1698 11.5199 14.689 11.8659 15.1765 11.897C15.62 11.9257 15.8667 11.673 15.9724 11.5653C15.9808 11.5568 15.9888 11.5482 15.9972 11.5404C16.0568 11.4919 16.1126 11.4269 16.154 11.3484C16.2477 11.3752 16.3462 11.4019 16.4471 11.4292C16.794 11.5232 17.4397 11.698 17.5824 11.8492C17.8359 12.1178 18.0334 12.6292 18.2077 13.0803C18.2958 13.3083 18.379 13.5234 18.4723 13.7229C18.5124 13.8085 18.5518 13.8967 18.5919 13.986C18.8622 14.5891 19.1687 15.2726 19.8188 15.6975C20.1136 15.8903 20.4749 15.9456 20.7938 15.9946C20.8323 16.0005 20.8765 16.0073 20.9214 16.0147C20.7321 16.2787 20.4627 16.5296 20.178 16.7947C19.4526 17.4702 18.5499 18.3109 18.9657 19.652C19.1619 20.2853 19.171 20.3538 18.8555 20.697C18.8125 20.7438 18.7724 20.7865 18.7349 20.8264C18.4646 21.1141 18.2512 21.3414 18.0745 21.898C18.0231 22.0597 17.9566 22.1345 17.8359 22.2705C17.7393 22.3792 17.619 22.5147 17.508 22.7045C17.3751 22.932 17.3312 23.151 17.296 23.327C17.2612 23.5001 17.2415 23.587 17.1736 23.6705C17.0188 23.8605 16.7302 24.1363 16.4339 24.3246C16.1585 24.4994 15.9977 24.5233 15.9429 24.5201C15.8804 24.453 15.6539 24.1596 15.3118 23.1439C15.2274 22.8934 15.1103 22.6356 14.9971 22.3863C14.7476 21.8366 14.4896 21.2683 14.6151 20.8799C14.6299 20.834 14.6445 20.7893 14.659 20.7455C14.8595 20.1344 15.0487 19.5573 14.6981 18.7171C14.5913 18.4612 14.4214 18.2742 14.2715 18.1092C14.1746 18.0025 14.0647 17.8816 14.0478 17.812C14.0271 17.7271 14.0278 17.629 14.0286 17.5155C14.0305 17.2094 14.0336 16.7468 13.5737 16.3161C12.9253 15.7092 12.1692 15.8962 11.6688 16.0199C11.5151 16.0579 11.3699 16.0939 11.2412 16.109C10.4181 16.2054 9.68324 15.8949 9.22445 15.2564C8.74451 14.5887 8.67484 13.69 9.04269 12.9113C9.22076 12.5345 9.48976 12.2317 9.80125 11.8813C9.86927 11.8048 9.93795 11.7275 10.0066 11.6484C10.1209 11.5167 10.2466 11.3383 10.3796 11.1495C10.5384 10.924 10.834 10.5046 10.9623 10.4248C11.2236 10.2778 11.8301 10.2563 12.273 10.2406Z" fill="black"/>
<path d="M21.9169 24.7688C22.5145 24.6711 22.9638 24.0494 23.331 22.8121L24.0202 20.4894C24.0508 20.3861 24.0524 20.2764 24.0247 20.1724L23.7428 19.1098C23.6813 18.8778 23.4844 18.7068 23.2461 18.6783C23.0075 18.6504 22.7761 18.7697 22.6616 18.9807C22.5973 19.0991 22.5395 19.2245 22.4836 19.3457C22.3896 19.5497 22.2923 19.7606 22.1911 19.877C22.1343 19.9424 21.9883 20.0129 21.8472 20.081C21.5098 20.2438 21.0478 20.4667 20.8713 21.0294C20.7618 21.3783 20.8027 21.6544 20.8325 21.856C20.8584 22.0308 20.8644 22.0914 20.8175 22.2013L20.8117 22.2149C20.6252 22.6526 20.2782 23.4673 20.7648 24.16C21.1119 24.6543 21.477 24.7814 21.7606 24.7814C21.816 24.7815 21.8684 24.7767 21.9169 24.7688ZM21.7236 23.4865C21.6116 23.3271 21.779 22.9342 21.8897 22.6743L21.8956 22.6605C22.0742 22.2414 22.0265 21.9195 21.9917 21.6844C21.9694 21.5338 21.9614 21.4692 21.9894 21.3803C22.0123 21.3072 22.1496 21.2363 22.3565 21.1365C22.4482 21.0922 22.5491 21.0435 22.651 20.9845L22.2077 22.4788C22.0205 23.1096 21.8549 23.4041 21.7594 23.5347C21.7483 23.5207 21.7364 23.5048 21.7236 23.4865Z" fill="black"/>
<path d="M15.7819 6.95106C15.4768 6.84419 15.1422 7.00468 15.0351 7.31001C14.928 7.6154 15.0888 7.94968 15.3941 8.05679L15.4336 8.07062C15.4977 8.09312 15.5631 8.10378 15.6275 8.10378C15.8694 8.10378 16.0958 7.95279 16.1804 7.71167C16.2875 7.40628 16.1268 7.072 15.8215 6.96489L15.7819 6.95106Z" fill="black"/>
</g>
<defs>
<clipPath id="clip0">
<rect width="30" height="30" fill="white"/>
</clipPath>
</defs>
</svg>
