<svg width="28" height="28" viewBox="0 0 28 28" fill="none" xmlns="http://www.w3.org/2000/svg">
<path d="M0.554688 15.5015V24.4472L7.27753 27.4517V18.994" fill="#FAF7F5"/>
<path d="M7.27734 18.994V27.4517L14.0002 24.4472V15.5015" fill="#FFE6B4"/>
<path d="M7.27753 18.5059L0.554688 15.5014L7.27753 12.4971L14.0004 15.5014L7.27753 18.5059Z" fill="#FAF7F5"/>
<path d="M14 15.5015V24.4472L20.7228 27.4517V18.994" fill="#FAF7F5"/>
<path d="M20.7227 18.994V27.4517L27.4455 24.4472V15.5015" fill="#FFE6B4"/>
<path d="M20.7228 18.5059L14 15.5014L20.7228 12.4971L27.4457 15.5014L20.7228 18.5059Z" fill="#FAF7F5"/>
<path d="M7.27734 3.55127V12.497L14.0002 15.5015V7.04378" fill="#FAF7F5"/>
<path d="M14 7.04378V15.5015L20.7228 12.497V3.55127" fill="#FFE6B4"/>
<path d="M14.0002 6.55572L7.27734 3.5513L14.0002 0.546875L20.723 3.5513L14.0002 6.55572Z" fill="#FAF7F5"/>
<path d="M27.9929 15.4646C27.9929 15.2912 27.8995 15.1312 27.7485 15.0459L27.7484 15.0458C27.7479 15.0455 27.7474 15.0452 27.747 15.045C27.7191 15.0265 27.6895 15.0106 27.6583 14.9974L21.27 12.1425V3.55119C21.27 3.54703 21.2699 3.54293 21.2698 3.53883C21.2698 3.53746 21.2698 3.53615 21.2697 3.53478C21.2697 3.53205 21.2696 3.52926 21.2694 3.52652C21.2693 3.52488 21.2693 3.52324 21.2692 3.5216C21.269 3.5181 21.2688 3.51455 21.2685 3.51105C21.2683 3.50859 21.2681 3.50618 21.2679 3.50377C21.2678 3.50252 21.2677 3.5012 21.2676 3.49995C21.2574 3.39046 21.2149 3.29033 21.1497 3.20917C21.1488 3.20802 21.1479 3.20688 21.1469 3.20573C21.1456 3.20414 21.1443 3.20255 21.143 3.20097C21.1416 3.19933 21.1403 3.19769 21.1388 3.19605C21.1378 3.19484 21.1368 3.19364 21.1358 3.19249C21.1333 3.18965 21.1308 3.1868 21.1282 3.18402C21.1277 3.18347 21.1273 3.18292 21.1267 3.18237C21.1244 3.17986 21.1221 3.17734 21.1197 3.17488C21.1192 3.17428 21.1186 3.17373 21.118 3.17313C21.1154 3.1704 21.1128 3.16766 21.1101 3.16498C21.1099 3.16482 21.1098 3.16466 21.1096 3.16449C21.1066 3.16148 21.1035 3.15848 21.1004 3.15552C21.1003 3.15541 21.1002 3.15536 21.1001 3.15525C21.0973 3.15257 21.0944 3.14989 21.0915 3.14727C21.091 3.14677 21.0904 3.14628 21.0899 3.14579C21.0873 3.14344 21.0846 3.14103 21.0819 3.13873C21.0815 3.13835 21.081 3.13791 21.0805 3.13753C21.0775 3.13496 21.0745 3.13239 21.0715 3.12987C21.0706 3.12916 21.0697 3.12845 21.0689 3.1278C21.0669 3.12616 21.0648 3.12446 21.0627 3.12282C21.0614 3.12173 21.0599 3.12063 21.0586 3.11954C21.057 3.11834 21.0554 3.11713 21.0539 3.11593C21.0174 3.0882 20.9775 3.06496 20.9346 3.04697L14.2235 0.0475781C14.0815 -0.0158594 13.9192 -0.0158594 13.7773 0.0475781L7.06589 3.04686C7.02313 3.06485 6.98315 3.08809 6.94673 3.11582C6.94514 3.11702 6.94355 3.11823 6.94202 3.11943C6.9406 3.12052 6.93923 3.12162 6.93787 3.12271C6.93579 3.12435 6.93377 3.12599 6.93169 3.12769C6.93081 3.1284 6.92994 3.12905 6.92912 3.12977C6.92605 3.13228 6.92305 3.13485 6.92004 3.13742C6.9196 3.1378 6.91916 3.13819 6.91867 3.13862C6.91599 3.14092 6.91331 3.14333 6.91069 3.14568C6.91014 3.14617 6.90959 3.14666 6.90905 3.14716C6.90615 3.14978 6.90331 3.15246 6.90046 3.15514C6.90035 3.15525 6.9003 3.1553 6.90019 3.15541C6.89707 3.15837 6.89401 3.16138 6.891 3.16438C6.89084 3.16455 6.89067 3.16471 6.89051 3.16488C6.88783 3.16755 6.8852 3.17029 6.88258 3.17302C6.88203 3.17362 6.88143 3.17417 6.88088 3.17477C6.87853 3.17723 6.87618 3.17975 6.87388 3.18227C6.87339 3.18281 6.87284 3.18336 6.87235 3.18391C6.86984 3.1867 6.86732 3.18954 6.86481 3.19238C6.86377 3.19353 6.86278 3.19473 6.86174 3.19594C6.86038 3.19758 6.85895 3.19922 6.85759 3.20086C6.85627 3.20245 6.85496 3.20403 6.85365 3.20562C6.85272 3.20677 6.85179 3.20791 6.85091 3.20906C6.78573 3.29022 6.74323 3.3903 6.73306 3.49984C6.73295 3.50109 6.73284 3.50241 6.73273 3.50366C6.73252 3.50612 6.7323 3.50853 6.73213 3.51094C6.73186 3.51444 6.73164 3.51799 6.73148 3.52149C6.73137 3.52313 6.73131 3.52477 6.73126 3.52641C6.73115 3.52915 6.73104 3.53194 6.73093 3.53467C6.73088 3.53604 6.73088 3.53735 6.73082 3.53872C6.73071 3.54282 6.73066 3.54698 6.73066 3.55108V12.1424L0.342336 14.9974C0.342172 14.9974 0.342008 14.9975 0.341844 14.9976C0.139828 15.0823 0.0078125 15.2798 0.0078125 15.4989V15.5014V24.4472C0.0078125 24.6629 0.134578 24.8585 0.331563 24.9465C0.331563 24.9465 7.05517 27.9512 7.05556 27.9514L7.05873 27.9528C7.1972 28.0154 7.3559 28.0157 7.49459 27.9536L7.50066 27.9508L14.0004 25.0462L20.5001 27.9509C20.5002 27.951 20.5086 27.9542 20.5221 27.9593C20.6591 28.0114 20.8115 28.0085 20.9462 27.9509C20.9463 27.9509 20.9463 27.9509 20.9463 27.9509L27.6691 24.9465C27.8661 24.8585 27.9929 24.6629 27.9929 24.4472V15.5014V15.4646ZM20.7232 17.9069L15.3407 15.5014L20.7232 13.096L26.1057 15.5014L20.7232 17.9069ZM14.0004 8.72599C14.3024 8.72599 14.5472 8.48116 14.5472 8.17917V6.91026L20.1763 4.39463V12.1424L14.5472 14.6581V13.1234C14.5472 12.8213 14.3024 12.5765 14.0004 12.5765C13.6984 12.5765 13.4536 12.8213 13.4536 13.1234V14.6581L7.82441 12.1424V4.39463L13.4536 6.91026V8.17917C13.4535 8.48121 13.6984 8.72599 14.0004 8.72599ZM14.0004 1.14581L19.3829 3.5513L14.0004 5.95667L8.61781 3.55124L14.0004 1.14581ZM7.27753 13.096L12.6601 15.5014L7.27753 17.9069L1.89502 15.5014L7.27753 13.096ZM1.10151 16.3448L6.74548 18.8671C6.7358 18.9079 6.73066 18.9503 6.73066 18.994V26.6083L1.10151 24.0926V16.3448ZM7.80953 18.8671L13.4535 16.3448V24.0927L7.82435 26.6084V18.994C7.82435 18.9503 7.81921 18.9078 7.80953 18.8671ZM14.5472 16.3448L20.1912 18.8671C20.1815 18.9079 20.1763 18.9503 20.1763 18.994V26.6083L14.5472 24.0926V16.3448ZM21.27 26.6083V18.994C21.27 18.9503 21.2649 18.9078 21.2552 18.8671L26.8992 16.3448V24.0926L21.27 26.6083Z" fill="#4F4F4F"/>
<path d="M14.0002 11.1877C13.7688 11.1877 13.5566 11.036 13.4824 10.8166C13.4124 10.6098 13.4752 10.3738 13.6396 10.2298C13.8188 10.0729 14.0865 10.0516 14.2888 10.1768C14.4827 10.2968 14.583 10.534 14.5342 10.7567C14.4798 11.005 14.2549 11.1877 14.0002 11.1877Z" fill="#4F4F4F"/>
</svg>
