<svg width="153" height="29" viewBox="0 0 153 29" fill="none" xmlns="http://www.w3.org/2000/svg">
<path d="M13.0391 3.33335C13.317 2.36932 14.683 2.36933 14.9609 3.33335L16.7486 9.53501C16.8746 9.97207 17.2796 10.269 17.7343 10.2577L24.0595 10.1003C25.0445 10.0758 25.4676 11.3402 24.6661 11.9134L19.3973 15.6812C19.0387 15.9376 18.8903 16.3987 19.0321 16.8161L21.1398 23.0231C21.4602 23.9668 20.354 24.7472 19.5724 24.1289L14.6205 20.2109C14.2569 19.9232 13.7431 19.9232 13.3795 20.2109L8.42761 24.1289C7.64604 24.7472 6.53978 23.9668 6.86023 23.0231L8.96794 16.8161C9.10969 16.3987 8.96134 15.9376 8.60272 15.6812L3.33392 11.9134C2.53244 11.3402 2.95547 10.0758 3.94049 10.1003L10.2657 10.2577C10.7204 10.269 11.1254 9.97206 11.2514 9.53501L13.0391 3.33335Z" fill="#6697CD"/>
<path d="M44.5418 3.20947C44.826 2.25757 46.174 2.25757 46.4582 3.20947L48.3497 9.54495C48.4787 9.9771 48.8811 10.2694 49.3319 10.2586L55.9418 10.0997C56.935 10.0759 57.3515 11.3579 56.534 11.9223L51.0931 15.679C50.722 15.9353 50.5683 16.4083 50.718 16.8337L52.9116 23.071C53.2412 24.0082 52.1506 24.8005 51.3612 24.1975L46.1071 20.1837C45.7487 19.91 45.2513 19.91 44.8929 20.1837L39.6388 24.1975C38.8494 24.8005 37.7588 24.0082 38.0884 23.071L40.282 16.8337C40.4317 16.4083 40.278 15.9353 39.9069 15.679L34.466 11.9223C33.6485 11.3579 34.065 10.0759 35.0582 10.0997L41.6681 10.2586C42.1189 10.2694 42.5213 9.9771 42.6503 9.54494L44.5418 3.20947Z" fill="#6697CD"/>
<path d="M75.5418 3.20947C75.826 2.25757 77.174 2.25757 77.4582 3.20947L79.3497 9.54495C79.4787 9.9771 79.8811 10.2694 80.3319 10.2586L86.9418 10.0997C87.935 10.0759 88.3515 11.3579 87.534 11.9223L82.0931 15.679C81.722 15.9353 81.5683 16.4083 81.718 16.8337L83.9116 23.071C84.2412 24.0082 83.1506 24.8005 82.3612 24.1975L77.1071 20.1837C76.7487 19.91 76.2513 19.91 75.8929 20.1837L70.6388 24.1975C69.8494 24.8005 68.7588 24.0082 69.0884 23.071L71.282 16.8337C71.4317 16.4083 71.278 15.9353 70.9069 15.679L65.466 11.9223C64.6485 11.3579 65.065 10.0759 66.0582 10.0997L72.6681 10.2586C73.1189 10.2694 73.5213 9.9771 73.6503 9.54494L75.5418 3.20947Z" fill="#6697CD"/>
<path d="M106.542 3.20947C106.826 2.25757 108.174 2.25757 108.458 3.20947L110.35 9.54495C110.479 9.9771 110.881 10.2694 111.332 10.2586L117.942 10.0997C118.935 10.0759 119.352 11.3579 118.534 11.9223L113.093 15.679C112.722 15.9353 112.568 16.4083 112.718 16.8337L114.912 23.071C115.241 24.0082 114.151 24.8005 113.361 24.1975L108.107 20.1837C107.749 19.91 107.251 19.91 106.893 20.1837L101.639 24.1975C100.849 24.8005 99.7588 24.0082 100.088 23.071L102.282 16.8337C102.432 16.4083 102.278 15.9353 101.907 15.679L96.466 11.9223C95.6485 11.3579 96.065 10.0759 97.0582 10.0997L103.668 10.2586C104.119 10.2694 104.521 9.9771 104.65 9.54494L106.542 3.20947Z" fill="#6697CD"/>
<path d="M138.32 3.65183C138.462 3.17588 139.136 3.17588 139.278 3.65183L141.106 9.7751C141.3 10.4233 141.904 10.8618 142.58 10.8455L148.968 10.692C149.465 10.6801 149.673 11.3211 149.264 11.6033L144.006 15.2342C143.449 15.6186 143.219 16.328 143.443 16.9662L145.563 22.9946C145.728 23.4632 145.183 23.8593 144.788 23.5578L139.71 19.6785C139.172 19.2679 138.426 19.2679 137.889 19.6785L132.81 23.5578C132.416 23.8593 131.87 23.4632 132.035 22.9946L134.155 16.9662C134.38 16.328 134.149 15.6186 133.593 15.2342L128.334 11.6033C127.925 11.3211 128.134 10.6801 128.63 10.692L135.019 10.8455C135.695 10.8618 136.298 10.4233 136.492 9.7751L138.32 3.65183Z" stroke="#6697CD"/>
<path fill-rule="evenodd" clip-rule="evenodd" d="M139.642 3.12145C139.392 2.28443 138.207 2.28443 137.957 3.12145L136.013 9.63206C135.884 10.0642 135.482 10.3565 135.031 10.3457L128.642 10.1922C127.649 10.1683 127.233 11.4503 128.05 12.0148L133.309 15.6456C133.68 15.9019 133.834 16.3749 133.684 16.8003L131.564 22.8287C131.234 23.7659 132.325 24.5582 133.114 23.9551L138.8 19.6121V3.00414C138.8 2.73881 138.959 2.46675 139.183 2.60798C139.313 2.68959 139.468 2.84601 139.642 3.12145Z" fill="#6697CD"/>
</svg>
