<svg width="74" height="91" viewBox="0 0 74 91" fill="none" xmlns="http://www.w3.org/2000/svg">
<path d="M43.0307 89.9793C43.0195 90.2552 43.2341 90.488 43.51 90.4992L48.0063 90.6821C48.2822 90.6933 48.515 90.4788 48.5262 90.2029C48.5374 89.9269 48.3228 89.6942 48.0469 89.6829L44.0502 89.5204L44.2128 85.5237C44.224 85.2478 44.0095 85.015 43.7336 85.0038C43.4576 84.9925 43.2249 85.2071 43.2136 85.483L43.0307 89.9793ZM1.10899 3.48762C1.42617 3.41677 1.74492 3.34825 2.06517 3.28204L1.86272 2.30275C1.53733 2.37002 1.2134 2.43966 0.891007 2.51166L1.10899 3.48762ZM4.0041 2.91258C4.6501 2.79972 5.30143 2.69594 5.95752 2.60121L5.81463 1.61148C5.14894 1.70759 4.48787 1.81292 3.832 1.9275L4.0041 2.91258ZM7.91446 2.34709C8.56761 2.2716 9.22481 2.20483 9.88555 2.14676L9.79799 1.1506C9.12827 1.20946 8.46198 1.27716 7.79965 1.35371L7.91446 2.34709ZM11.8529 2.00013C12.5105 1.95979 13.1711 1.92788 13.8341 1.90437L13.7986 0.905001C13.1271 0.928811 12.458 0.961136 11.7916 1.002L11.8529 2.00013ZM15.8061 1.85927C16.4655 1.85243 17.1268 1.85377 17.7894 1.86327L17.8037 0.86337C17.1329 0.853756 16.4634 0.852399 15.7958 0.859328L15.8061 1.85927ZM19.763 1.91552C20.4215 1.94091 21.081 1.97429 21.7408 2.01562L21.8033 1.01758C21.1355 0.97575 20.4681 0.941967 19.8015 0.916259L19.763 1.91552ZM23.7132 2.16279C24.3698 2.21964 25.0263 2.28433 25.6822 2.35685L25.7921 1.3629C25.1283 1.28952 24.4639 1.22405 23.7994 1.16652L23.7132 2.16279ZM27.6468 2.59766C28.3004 2.68566 28.953 2.78145 29.6041 2.88498L29.7612 1.89739C29.1022 1.7926 28.4417 1.69567 27.7803 1.6066L27.6468 2.59766ZM31.5541 3.21908C32.2037 3.33843 32.8512 3.46554 33.4964 3.6004L33.701 2.62156C33.0479 2.48503 32.3923 2.35635 31.7349 2.23554L31.5541 3.21908ZM35.4248 4.02832C36.069 4.17965 36.7102 4.3388 37.348 4.50573L37.6012 3.53831C36.9552 3.36923 36.3058 3.20806 35.6535 3.05483L35.4248 4.02832ZM39.2507 5.02984C39.8869 5.21395 40.5191 5.40596 41.1468 5.60583L41.4502 4.65296C40.8139 4.45038 40.1733 4.2558 39.5287 4.06926L39.2507 5.02984ZM43.0191 6.23001C43.6442 6.44797 44.2642 6.67393 44.8787 6.90786L45.2345 5.97329C44.6111 5.73596 43.9822 5.50677 43.3483 5.28576L43.0191 6.23001ZM46.7133 7.637C47.3242 7.8903 47.9289 8.15174 48.5268 8.4213L48.9378 7.50966C48.3305 7.23586 47.7164 6.97038 47.0963 6.71325L46.7133 7.637ZM50.3142 9.26137C50.9073 9.55188 51.493 9.85073 52.0705 10.1579L52.54 9.27498C51.9525 8.96251 51.357 8.65861 50.754 8.36329L50.3142 9.26137ZM53.7981 11.1156C54.3692 11.4456 54.9313 11.7842 55.4839 12.1312L56.0158 11.2844C55.4526 10.9307 54.8799 10.5858 54.2983 10.2498L53.7981 11.1156ZM57.1354 13.2137C57.6791 13.5857 58.2122 13.9664 58.7342 14.356L59.3323 13.5546C58.7991 13.1566 58.2548 12.7679 57.7 12.3884L57.1354 13.2137ZM60.289 15.5698C60.7985 15.9861 61.2957 16.4115 61.7799 16.846L62.4477 16.1016C61.9518 15.6566 61.4429 15.2212 60.9217 14.7954L60.289 15.5698ZM63.2129 18.1962C63.6797 18.6585 64.1323 19.1302 64.5699 19.6112L65.3096 18.9382C64.86 18.4441 64.3954 17.9599 63.9165 17.4857L63.2129 18.1962ZM65.8517 21.0995C66.2655 21.6079 66.6632 22.1259 67.0441 22.6535L67.8549 22.0681C67.4624 21.5246 67.053 20.9913 66.6272 20.4682L65.8517 21.0995ZM68.1428 24.2761C68.4923 24.828 68.824 25.3896 69.1372 25.9608L70.014 25.4801C69.6906 24.8901 69.3482 24.3104 68.9876 23.7411L68.1428 24.2761ZM70.0218 27.7069C70.2963 28.296 70.5517 28.8948 70.7872 29.5032L71.7198 29.1422C71.4761 28.5128 71.212 27.8936 70.9282 27.2845L70.0218 27.7069ZM71.4321 31.3532C71.6238 31.9699 71.7957 32.5961 71.947 33.2315L72.9198 32.9999C72.7633 32.3424 72.5854 31.6945 72.387 31.0563L71.4321 31.3532ZM72.3369 35.1574C72.4429 35.7903 72.529 36.432 72.5946 37.0825L73.5895 36.9823C73.5218 36.3101 73.4328 35.6467 73.3232 34.9922L72.3369 35.1574ZM72.7283 39.0502C72.7512 39.6885 72.7546 40.3348 72.7381 40.9892L73.7378 41.0144C73.7548 40.3399 73.7513 39.6732 73.7277 39.0145L72.7283 39.0502ZM72.6292 42.9624C72.5753 43.5986 72.5029 44.2421 72.4115 44.8928L73.4018 45.0319C73.4957 44.3633 73.5702 43.7016 73.6257 43.0468L72.6292 42.9624ZM72.0853 46.8378C71.9624 47.4693 71.8219 48.1073 71.6633 48.752L72.6343 48.9908C72.7967 48.3306 72.9408 47.6766 73.0669 47.0288L72.0853 46.8378ZM71.152 50.6412C70.9666 51.2698 70.7642 51.9044 70.5445 52.5449L71.4905 52.8693C71.7147 52.2153 71.9215 51.5669 72.1111 50.9241L71.152 50.6412ZM69.8822 54.3588C69.6461 54.9686 69.3945 55.5837 69.1272 56.2039L70.0455 56.5997C70.3177 55.9682 70.574 55.3416 70.8148 54.7199L69.8822 54.3588ZM68.3184 57.9939C68.0444 58.5739 67.7568 59.1582 67.4553 59.747L68.3454 60.2028C68.6516 59.6048 68.944 59.0109 69.2226 58.4211L68.3184 57.9939ZM66.5091 61.5262C66.2006 62.0858 65.8797 62.6491 65.5463 63.2163L66.4083 63.7231C66.7463 63.1482 67.0718 62.5768 67.3848 62.0091L66.5091 61.5262ZM64.5296 64.8946C64.1786 65.4577 63.8153 66.0244 63.4396 66.5947L64.2747 67.1449C64.6549 66.5677 65.0227 65.994 65.3782 65.4237L64.5296 64.8946ZM62.3468 68.2129C61.9808 68.742 61.6042 69.2741 61.2168 69.8093L62.0269 70.3956C62.4183 69.8548 62.7991 69.3168 63.1692 68.7818L62.3468 68.2129ZM60.0225 71.4238C59.6268 71.9474 59.2209 72.4739 58.8048 73.0031L59.5909 73.6212C60.0109 73.087 60.4207 72.5555 60.8203 72.0267L60.0225 71.4238ZM57.5938 74.5153C57.1808 75.0219 56.7585 75.531 56.3267 76.0426L57.0909 76.6876C57.5263 76.1717 57.9523 75.6582 58.3689 75.1472L57.5938 74.5153ZM55.0027 77.5849C54.58 78.0693 54.1488 78.5559 53.7091 79.0447L54.4526 79.7135C54.8956 79.221 55.3301 78.7307 55.7562 78.2424L55.0027 77.5849ZM52.3934 80.4864C51.9466 80.969 51.4916 81.4538 51.0283 81.9406L51.7526 82.63C52.2191 82.1399 52.6773 81.6518 53.1273 81.1657L52.3934 80.4864ZM49.6132 83.4074C49.1642 83.8666 48.7079 84.3276 48.2442 84.7905L48.9506 85.4982C49.4172 85.0326 49.8764 84.5686 50.3282 84.1065L49.6132 83.4074ZM46.855 86.1607C46.3847 86.6192 45.9072 87.0794 45.4224 87.5414L46.1123 88.2653C46.5998 87.8007 47.08 87.3379 47.5531 86.8767L46.855 86.1607ZM43.9461 88.9325C43.6964 89.1653 43.4448 89.3984 43.1914 89.632L43.8692 90.3673C44.1239 90.1324 44.3768 89.8981 44.6279 89.6641L43.9461 88.9325Z" fill="#6697CD"/>
</svg>
