<svg width="24" height="24" viewBox="0 0 24 24" fill="none" xmlns="http://www.w3.org/2000/svg">
<path d="M12.7963 20.9864V12.7753C16.6608 12.3328 19.4103 9.09704 19.4103 5.40595C19.4103 4.01062 19.0228 2.27512 18.3513 0.592682C18.2087 0.234873 17.8618 0 17.4768 0H6.51619C6.13091 0 5.7841 0.234873 5.64158 0.59273C5.03529 2.11182 4.56423 3.90246 4.58987 5.55481C4.58987 5.55636 4.5903 5.55791 4.5903 5.55941C4.66493 9.19977 7.39181 12.3504 11.1961 12.7753V20.9864C8.67739 21.1925 6.74665 22.3121 6.74665 22.875C6.74665 23.4969 9.09688 24 11.9966 24C14.8962 24 17.2467 23.4969 17.2467 22.875C17.2467 22.3121 15.3153 21.1923 12.7963 20.9864ZM6.96888 1.60011H17.0239C17.5259 2.96927 17.8102 4.3365 17.8102 5.406C17.8102 5.66568 17.7871 5.92013 17.754 6.17124C17.2537 6.04656 16.7352 6.03008 16.1789 6.22808C14.7263 6.74526 13.7846 7.07652 12.3067 6.49697C10.8373 5.92028 9.90869 3.30072 8.14659 3.50003C7.44652 3.57882 6.84589 3.80909 6.3037 4.12895C6.4295 3.33522 6.64901 2.47268 6.96888 1.60011Z" fill="#F2F2F2"/>
</svg>
